<?xml version="1.0" standalone="no"?>
<!DOCTYPE svg PUBLIC "-//W3C//DTD SVG 1.1//EN" "http://www.w3.org/Graphics/SVG/1.1/DTD/svg11.dtd" >
<svg xmlns="http://www.w3.org/2000/svg">
<metadata>
This is a custom SVG webfont generated by Font Squirrel.
Copyright   : Copyright c 2010 by Bastien Sozoo All rights reserved3
Designer    : BSozoo
Foundry     : BSozoo
</metadata>
<defs>
<font id="CaledoBold" horiz-adv-x="764" >
<font-face units-per-em="2048" ascent="1638" descent="-410" />
<missing-glyph horiz-adv-x="460" />
<glyph unicode=" "  horiz-adv-x="460" />
<glyph unicode="&#x09;" horiz-adv-x="460" />
<glyph unicode="&#xa0;" horiz-adv-x="460" />
<glyph unicode="!" horiz-adv-x="324" d="M102 0v104h106v-104h-106zM104 1856h156l-38 -1602h-84z" />
<glyph unicode="&#x22;" horiz-adv-x="534" d="M74 1510l106 322h142l-164 -322h-84zM274 1510l106 322h142l-164 -322h-84z" />
<glyph unicode="#" horiz-adv-x="1506" d="M56 410l32 128h1262l-30 -128h-1264zM166 892l30 128h1264l-32 -128h-1262zM268 0l346 1432h146l-348 -1432h-144zM766 0l348 1432h146l-348 -1432h-146z" />
<glyph unicode="$" horiz-adv-x="790" d="M90 454v34h154q2 -200 15 -294t45 -130t98 -36t109 49t58 129t19 145t2 131q-10 146 -77 266t-221 304q-168 202 -190 420q-10 44 -1 111t27 129t70 114t128 68v158h130v-156q242 -38 242 -432v-72h-154v40q-2 200 -13 294t-40 130t-91 36t-104 -32t-56 -79t-20 -101 t2 -96q12 -168 94 -294q40 -56 118 -145t129 -152t101 -167t68 -220q18 -88 8 -186t-36 -181t-91 -144t-157 -73v-130h-130v132q-236 42 -236 430z" />
<glyph unicode="%" horiz-adv-x="1084" d="M16 1590q0 106 74 180t180 74t180 -74t74 -180t-74 -180t-180 -74t-180 74t-74 180zM102 0l732 1842h116l-736 -1842h-112zM106 1590q0 -68 48 -116t116 -48t116 48t48 116t-48 116t-116 48t-116 -48t-48 -116zM538 256q0 104 75 179t179 75t179 -75t75 -179t-75 -179 t-179 -75t-179 75t-75 179zM628 256q0 -68 48 -116t116 -48t116 48t48 116t-48 116t-116 48t-116 -48t-48 -116z" />
<glyph unicode="&#x26;" horiz-adv-x="864" d="M164 228v566q0 88 76 144q74 56 120 56q-52 0 -124 52t-72 162v420q0 242 310 242q142 0 227 -52t85 -164v-22h-134q0 84 -50 139t-128 55q-90 0 -134 -65t-44 -155v-422q0 -48 20 -75t64 -49q30 -12 208 -60q80 -26 139 -80t59 -118v-562q0 -136 16 -174q22 -36 96 -36 v-28q-110 0 -148 18t-56 86l-8 -12q-56 -98 -212 -98q-310 0 -310 232zM296 204q0 -184 178 -184q180 0 178 222v536q0 86 -49 142t-129 56q-76 0 -127 -60t-51 -142v-570z" />
<glyph unicode="'" horiz-adv-x="376" d="M70 1596l122 270h136l-144 -270h-114z" />
<glyph unicode="(" horiz-adv-x="488" d="M102 884q0 510 70 794q28 114 78 180q46 62 93 81t123 19l-10 -30q-120 0 -162 -208q-36 -176 -36 -820q0 -390 2 -454q16 -484 152 -484v-26q-58 0 -100 18t-84 75t-68 158t-42 277t-16 420z" />
<glyph unicode=")" horiz-adv-x="488" d="M102 1958q76 0 123 -19t93 -81q50 -66 78 -180q70 -284 70 -794q0 -244 -16 -420t-42 -277t-68 -158t-84 -75t-100 -18v26q134 0 152 484q2 64 2 454q0 626 -36 820q-46 208 -162 208z" />
<glyph unicode="*" horiz-adv-x="528" d="M102 1282v72h422v-72h-422zM174 1154l212 364l64 -36l-210 -364zM174 1482l66 36l210 -364l-64 -36z" />
<glyph unicode="+" horiz-adv-x="894" d="M56 486v126h774v-126h-774zM380 162v774h126v-774h-126z" />
<glyph unicode="," horiz-adv-x="368" d="M58 -148l150 224h108l-144 -224h-114z" />
<glyph unicode="-" horiz-adv-x="544" d="M94 566v124h396v-124h-396z" />
<glyph unicode="." horiz-adv-x="286" d="M102 -2v104h106v-104h-106z" />
<glyph unicode="/" horiz-adv-x="786" d="M102 0l532 1904h128l-536 -1904h-124z" />
<glyph unicode="0" horiz-adv-x="776" d="M56 788v280q0 110 1 176t8 161t20 151t37 122t59 101t87 59t120 24h4h2q60 0 108 -16t82 -52t59 -74t40 -101t25 -116t14 -137t5 -143t1 -155v-280q0 -112 -1 -178t-8 -160t-20 -151t-37 -122t-60 -99t-89 -58t-121 -24h-6q-68 0 -120 25t-86 60t-59 99t-37 121t-19 151 t-8 160t-1 176zM210 614q-6 -346 30 -464q18 -66 55 -105t87 -41h10q110 0 152 146q36 118 30 464v628q6 346 -30 464q-40 140 -148 146h-4q-110 0 -152 -146q-36 -118 -30 -464v-628z" />
<glyph unicode="1" horiz-adv-x="556" d="M98 1850v8h394v-1858h-160v1850h-234z" />
<glyph unicode="2" horiz-adv-x="744" d="M52 173q-2 159 0 260t10 145q18 116 68 220t101 166t129 152t118 146q82 126 94 294q8 42 2 96t-20 100t-56 78t-104 32t-91 -36t-40 -130t-13 -294v-38h-154v72q0 220 72 328t226 108q82 0 142 -31t90 -80t49 -108t18 -113t-1 -96q-22 -218 -190 -422 q-154 -184 -221 -303t-77 -265q0 -8 -1 -175t-1 -179v-66h452v-34h-600q0 14 -2 173zM518 0v480h138v-480h-138z" />
<glyph unicode="3" horiz-adv-x="820" d="M96 436v44h154q0 -144 13 -240t38 -145t55 -67t72 -18q116 0 148 101t32 371q0 72 -1 120t-5 111t-12 103t-21 77t-34 55t-49 18h-130v8h104q68 0 95 75t27 299q0 132 -3 197t-15 149t-42 119t-80 35h-24q-74 -6 -108 -85t-34 -267v-38h-154v72q0 328 312 328 q302 0 302 -416q0 -228 -38 -337t-142 -135q118 -26 164 -139t46 -303q0 -82 -3 -132t-12 -120t-31 -112t-58 -83t-95 -60t-139 -19q-178 0 -255 106t-77 328z" />
<glyph unicode="4" horiz-adv-x="834" d="M46 546v10q58 0 128 204q52 166 149 578t127 520h166q-30 -106 -151 -590t-127 -504q-68 -208 -104 -208h494v-10h-682zM602 0v1558h164v-1558h-164z" />
<glyph unicode="5" horiz-adv-x="740" d="M100 224v312h152v-334q0 -182 148 -182q152 0 152 182v618q0 182 -152 182h-300v858h270q170 0 243 -41t73 -179v-24v-26h-156v26q0 50 -6 83t-24 67t-58 51t-104 17h-82v-808h192q140 0 193 -61t53 -189v-552q0 -228 -294 -228q-140 0 -220 59t-80 169z" />
<glyph unicode="6" horiz-adv-x="758" d="M82 234v1310q0 156 78 237t250 81q288 0 292 -272h-144q0 62 -5 100t-19 77t-45 58t-79 19q-182 0 -182 -268v-642q6 50 56 103t134 53q284 0 284 -318v-538q0 -114 -78 -177t-232 -63t-232 63t-78 177zM228 210q0 -92 42 -148t122 -56t123 57t43 147v598q0 56 -3 93 t-16 82t-43 68t-78 23q-100 0 -145 -78t-45 -194v-592z" />
<glyph unicode="7" d="M24 1590v26v22q0 108 92 164t228 56h380l-380 -1858h-164l384 1814h-220q-76 0 -117 -55t-41 -139v-30h-162z" />
<glyph unicode="8" horiz-adv-x="760" d="M38 396v140q0 74 3 116t17 100t43 89t85 57t136 32q-68 4 -118 20t-80 47t-48 61t-26 81t-10 87t-2 98v140q0 78 3 123t21 105t51 91t98 54t159 23h6q94 0 159 -23t99 -54t52 -91t21 -105t3 -123v-140q0 -74 -3 -117t-18 -100t-43 -89t-82 -57t-132 -31q78 -6 132 -32 t82 -58t43 -89t18 -100t3 -115v-140q0 -78 -3 -123t-21 -105t-52 -91t-99 -55t-159 -24h-6q-94 0 -159 24t-98 55t-51 91t-21 105t-3 123zM192 308q0 -180 30 -234q42 -70 152 -70h4q106 4 148 70q30 54 30 234v314q0 186 -30 230q-44 76 -142 76h-26q-96 0 -136 -76 q-30 -44 -30 -230v-314zM192 1236q0 -180 30 -232q34 -66 132 -72h36q100 6 136 72q30 52 30 232v314q0 184 -30 232q-42 70 -148 74h-4q-108 0 -152 -74q-30 -48 -30 -232v-314z" />
<glyph unicode="9" horiz-adv-x="734" d="M62 280v200h144v-174q0 -62 1 -92t9 -77t22 -69t44 -39t72 -17q182 0 182 268v790q0 -46 -51 -104t-139 -58q-146 0 -215 72t-69 246v2v2v2v2v2v2v2v2v2v2v2v2v2v2v2v2v2v2v2v2v2v2v2v2v2v2v2v2v2v2v2v2v2v2v2v2v2v2v2v2v2v2v2v2v2v2v2v2v2v2v2v2v2v2v2v2v2v2v2v2v2v2v2 v2v2v2v2v2v2v2v2v2v2v2v2v2v2v2v2v2v2v2v2v2v2v2v2v2v2v2v2v2v2v2v2v2v2v2v2v2v2v2v2v2v2v2v2v2v2v2v2v2v2v2v2v2v2v2v2v2v2v2v2v2v2v2v2v2v2v2v2v2v2v2v2v2v2v2v2v2v2v2v2v2v2v2v2v2v2v2v2v2v2v2v2v2v2v2v2v2v2v2v2v2v2v2v2v2v2v2v2v2v2v2v2v2v2v2v2v2v2v2v2v2v2v2v2v2v2 v18q0 114 78 177t232 63t232 -63t78 -177v-1310q0 -156 -78 -237t-250 -81q-94 0 -157 27t-90 76t-36 90t-9 93zM206 1190q0 -56 3 -93t16 -82t43 -68t78 -23q100 0 145 78t45 194v450q0 92 -42 148t-122 56t-123 -57t-43 -147v-456z" />
<glyph unicode=":" horiz-adv-x="296" d="M102 460v104h120v-104h-120zM102 920v104h120v-104h-120z" />
<glyph unicode=";" horiz-adv-x="368" d="M102 -170l106 162h108l-100 -162h-114zM206 50v198h110v-198h-110z" />
<glyph unicode="&#x3c;" horiz-adv-x="576" d="M30 842v24l506 414v-122l-352 -304l356 -306v-116z" />
<glyph unicode="=" horiz-adv-x="736" d="M62 250v124h774v-124h-774zM62 560v124h774v-124h-774z" />
<glyph unicode="&#x3e;" horiz-adv-x="588" d="M30 432v116l356 306l-354 304v122l508 -414v-24z" />
<glyph unicode="?" horiz-adv-x="738" d="M104 1480v160q0 230 328 230t332 -232q0 -82 1 -257t1 -279q0 -114 -102 -181t-232 -73h-14v-634h-142v654h122q226 4 226 190v604q0 184 -192 184q-188 0 -188 -184v-182h-140zM276 0v104h142v-104h-142z" />
<glyph unicode="@" horiz-adv-x="750" d="M68 266v508v514q0 260 316 260q314 0 314 -254v-56v-656q0 -20 -6 -41t-22 -46t-50 -42t-82 -17t-60 54q-30 -44 -100 -50q-126 0 -126 158v138v144q0 60 37 104t89 44q58 0 92 -38t34 -106v-154v-148q0 -80 7 -109t27 -29q38 0 40 138v274v296v126q0 118 -55 186 t-139 68q-78 0 -134 -77t-56 -185v-512v-512q0 -240 190 -240q90 0 141 65t51 197h122q0 -156 -76 -220t-238 -64q-172 -2 -244 60t-72 222zM308 582q0 -70 15 -96t53 -26q44 0 57 25t13 97v224v60q0 136 -70 136q-68 0 -68 -138v-142v-140z" />
<glyph unicode="A" d="M30 0l220 1858h246l228 -1858h-86h-68l-52 440h-282l-50 -440h-24h-132zM236 450h282l-142 1230z" />
<glyph unicode="B" horiz-adv-x="734" d="M102 0v1856h246q56 0 91 -5t77 -27t66 -65t40 -123t16 -194q0 -228 -38 -337t-142 -135q118 -26 164 -139t46 -303q0 -258 -26 -348q-50 -180 -236 -180h-304zM258 10h72q116 0 148 102t32 372q0 72 -1 120t-5 110t-12 102t-21 78t-34 56t-49 18h-130v-958zM258 974h104 q46 0 71 29t38 111t13 236q0 132 -3 196t-15 148t-42 119t-80 35h-86v-874z" />
<glyph unicode="C" horiz-adv-x="840" d="M102 788v280q0 112 1 178t8 161t20 151t37 121t60 100t89 59t121 24q178 0 255 -107t77 -329v-72h-154v38q0 194 -19 293t-55 133t-104 34q-110 0 -152 -146q-31 -101 -31 -370q0 -45 1 -94v-628q-1 -49 -1 -94q0 -269 31 -370q42 -146 152 -146q42 0 72 18t55 67t38 145 t13 240h154v-44q0 -222 -77 -328t-255 -106q-68 0 -121 24t-89 58t-60 99t-37 122t-20 151t-8 160t-1 178z" />
<glyph unicode="D" horiz-adv-x="772" d="M102 0v1856h280q88 0 142 -44q162 -152 162 -876q0 -454 -36 -634q-58 -278 -200 -296q-24 -6 -104 -6h-244zM258 10h80q62 2 92 24t53 112t37 282q10 160 10 650q1 45 1 88q0 383 -49 540q-30 88 -63 115t-101 27h-60v-1838z" />
<glyph unicode="E" horiz-adv-x="610" d="M102 1856h476v-8h-320v-870h320v-10h-320v-958h320v-10h-474z" />
<glyph unicode="F" horiz-adv-x="660" d="M102 1856h480v-8h-322v-874h322v-6h-322v-968h-156z" />
<glyph unicode="G" horiz-adv-x="788" d="M52 788v280q0 96 1 155t5 143t14 136t25 116t40 102t60 72t83 50t108 16q178 0 255 -105t77 -327v-72h-154v38q0 194 -19 292t-54 131t-105 33q-112 0 -152 -142q-31 -101 -31 -370q0 -45 1 -94v-628q-1 -49 -1 -94q0 -269 31 -370q42 -146 152 -146q42 0 72 18t55 67 t38 145t13 240v494h-190v8h344v-546q0 -222 -77 -328t-255 -106q-68 0 -121 24t-89 58t-60 99t-37 122t-20 151t-8 160t-1 178z" />
<glyph unicode="H" horiz-adv-x="808" d="M102 0v1856h154v-882h290v882h154v-1856h-154v968h-290v-968h-154z" />
<glyph unicode="I" horiz-adv-x="376" d="M102 0v1856h156v-1856h-156z" />
<glyph unicode="J" horiz-adv-x="474" d="M102 0v8q70 0 88 37t18 173v132v1506h156v-1584q0 -78 -12 -130t-29 -80t-51 -42t-61 -17t-77 -3h-32z" />
<glyph unicode="K" horiz-adv-x="698" d="M102 0v1856h156v-780l260 780h70l-262 -780l354 -1076h-150l-272 856v-856h-156z" />
<glyph unicode="L" horiz-adv-x="548" d="M102 0v1856h156v-1846h220v-10h-376z" />
<glyph unicode="M" horiz-adv-x="802" d="M102 0v1858h156l158 -1722l172 1722h154v-1858h-154v1636l-158 -1626h-4h-22h-4l-142 1626v-1636h-156z" />
<glyph unicode="N" horiz-adv-x="732" d="M102 0v1856l156 2l246 -1080v1078h154v-1856h-154v598l-246 1068v-1666h-156z" />
<glyph unicode="O" horiz-adv-x="922" d="M90 932q0 266 35 459t94 293t122 144t131 44q54 0 104 -25t101 -92t89 -169t62 -271t24 -383t-24 -383t-62 -271t-89 -168t-101 -91t-104 -25q-68 0 -131 44t-122 143t-94 292t-35 459zM248 894q0 -442 59 -666t165 -224q216 0 216 890v38v40q0 892 -216 892 q-106 0 -165 -225t-59 -667v-40v-38z" />
<glyph unicode="P" horiz-adv-x="696" d="M102 0v1856h260q70 0 120 -25t77 -62t42 -100t19 -118t4 -139q0 -68 -1 -104t-6 -93t-17 -87t-33 -67t-52 -56t-79 -32t-110 -13h-8h-60v-960h-156zM258 972h58q104 0 127 96t23 388q0 254 -30 322t-150 68h-28v-874z" />
<glyph unicode="Q" horiz-adv-x="912" d="M84 928q0 266 35 459t95 292t124 143t136 44q56 0 107 -25t104 -91t91 -168t62 -270t24 -384t-24 -384t-62 -270t-91 -168t-104 -91t-107 -25q-72 0 -136 44t-124 143t-95 292t-35 459zM154 18v14q122 0 291 -61t223 -65q11 -1 22 -1q35 0 62 10q36 13 54 37t26 40t12 32 h10q7 -23 7 -46q0 -36 -17 -73q-28 -61 -120 -71q-20 -2 -38 -2q-30 0 -57 6q-43 10 -71 24t-89 50t-109 60t-100 36t-80 12zM234 890q0 -442 64 -666t176 -224q110 0 171 223t61 667v38v40q0 442 -61 666t-171 224q-112 0 -176 -225t-64 -665v-40v-38z" />
<glyph unicode="R" horiz-adv-x="666" d="M104 2v1856h240q134 0 195 -96t61 -364q0 -216 -46 -315t-156 -117l218 -964h-154l-204 968l2 -968h-156zM258 976h46q46 0 76 26t43 80t17 105t4 131v134q0 166 -15 255t-40 116t-69 27h-60z" />
<glyph unicode="S" horiz-adv-x="724" d="M44 424v34h154q2 -198 15 -293t45 -131t98 -36t109 50t58 130t19 145q3 43 3 87q0 22 -1 44q-10 146 -77 265t-221 303q-168 204 -190 422q0 14 -0.5 48t-0.5 53q0 52 18 108q19 59 49 108t90 80t142 31q154 0 226 -108t72 -328v-72h-154v38q-2 200 -13 294t-40 130 t-91 36t-104 -32t-56 -78t-20 -100q-3 -23 -3 -44q0 -28 5 -52q12 -168 94 -294q40 -56 118 -146t129 -152t101 -166t68 -220q12 -60 12 -123q0 -38 -4 -77q-12 -104 -44 -191t-109 -143t-185 -56q-164 0 -238 108t-74 328z" />
<glyph unicode="T" horiz-adv-x="762" d="M36 1848v8h700v-8h-284v-1848h-154v1848h-262z" />
<glyph unicode="U" horiz-adv-x="874" d="M102 390v1472h154v-1614q0 -108 45 -173q42 -61 146 -61h13q208 4 208 234v1614h160v-1472q0 -228 -83 -310q-81 -80 -275 -80h-10q-200 4 -279 83t-79 307z" />
<glyph unicode="V" horiz-adv-x="740" d="M30 1856h156l194 -1680l186 1680h156l-224 -1856h-234z" />
<glyph unicode="W" horiz-adv-x="806" d="M102 0v1856l156 2v-1634l146 744h2h24l158 -744v1634h156v-1858h-156l-168 902l-162 -902h-156z" />
<glyph unicode="X" horiz-adv-x="670" d="M30 0l200 922l-200 934h156l148 -882l150 882h154l-200 -930l202 -926h-156l-150 874l-148 -874h-156z" />
<glyph unicode="Y" horiz-adv-x="660" d="M30 1856l86 2h70l148 -890l148 890h156l-228 -954l2 -904h-156v902z" />
<glyph unicode="Z" horiz-adv-x="682" d="M102 0l382 1848h-340l-4 8h498l-380 -1846h372v-10h-528z" />
<glyph unicode="[" horiz-adv-x="492" d="M102 -82v1026v1112l376 2v-28h-220v-1030v-1054l220 -2v-26h-376z" />
<glyph unicode="\" horiz-adv-x="732" d="M102 1904h156l530 -1904h-150z" />
<glyph unicode="]" horiz-adv-x="492" d="M102 -56l220 2v1054v1030h-220v28l370 -2l6 2v-2140h-376v26z" />
<glyph unicode="^" horiz-adv-x="676" d="M26 1896l246 174h110l258 -174h-162l-150 124l-136 -124h-166z" />
<glyph unicode="_" horiz-adv-x="722" d="M102 -4v42h604v-42h-604z" />
<glyph unicode="`" horiz-adv-x="304" d="M20 2166h146l114 -172h-94z" />
<glyph unicode="a" d="M30 0l220 1858h246l228 -1858h-86h-68l-52 440h-282l-50 -440h-24h-132zM236 450h282l-142 1230z" />
<glyph unicode="b" horiz-adv-x="734" d="M102 0v1856h246q56 0 91 -5t77 -27t66 -65t40 -123t16 -194q0 -228 -38 -337t-142 -135q118 -26 164 -139t46 -303q0 -258 -26 -348q-50 -180 -236 -180h-304zM258 10h72q116 0 148 102t32 372q0 72 -1 120t-5 110t-12 102t-21 78t-34 56t-49 18h-130v-958zM258 974h104 q46 0 71 29t38 111t13 236q0 132 -3 196t-15 148t-42 119t-80 35h-86v-874z" />
<glyph unicode="c" horiz-adv-x="840" d="M102 788v280q0 112 1 178t8 161t20 151t37 121t60 100t89 59t121 24q178 0 255 -107t77 -329v-72h-154v38q0 194 -19 293t-55 133t-104 34q-110 0 -152 -146q-31 -101 -31 -370q0 -45 1 -94v-628q-1 -49 -1 -94q0 -269 31 -370q42 -146 152 -146q42 0 72 18t55 67t38 145 t13 240h154v-44q0 -222 -77 -328t-255 -106q-68 0 -121 24t-89 58t-60 99t-37 122t-20 151t-8 160t-1 178z" />
<glyph unicode="d" horiz-adv-x="772" d="M102 0v1856h280q88 0 142 -44q162 -152 162 -876q0 -454 -36 -634q-58 -278 -200 -296q-24 -6 -104 -6h-244zM258 10h80q62 2 92 24t53 112t37 282q10 160 10 650q1 45 1 88q0 383 -49 540q-30 88 -63 115t-101 27h-60v-1838z" />
<glyph unicode="e" horiz-adv-x="656" d="M102 1856h476v-8h-320v-870h320v-10h-320v-958h320v-10h-474z" />
<glyph unicode="f" horiz-adv-x="660" d="M102 1856h480v-8h-322v-874h322v-6h-322v-968h-156z" />
<glyph unicode="g" horiz-adv-x="838" d="M102 788v280q0 96 1 155t5 143t14 136t25 116t40 102t60 72t83 50t108 16q178 0 255 -105t77 -327v-72h-154v38q0 194 -19 292t-54 131t-105 33q-112 0 -152 -142q-31 -101 -31 -370q0 -45 1 -94v-628q-1 -49 -1 -94q0 -269 31 -370q42 -146 152 -146q42 0 72 18t55 67 t38 145t13 240v494h-190v8h344v-546q0 -222 -77 -328t-255 -106q-68 0 -121 24t-89 58t-60 99t-37 122t-20 151t-8 160t-1 178z" />
<glyph unicode="h" horiz-adv-x="808" d="M102 0v1856h154v-882h290v882h154v-1856h-154v968h-290v-968h-154z" />
<glyph unicode="i" horiz-adv-x="376" d="M102 0v1856h156v-1856h-156z" />
<glyph unicode="j" horiz-adv-x="474" d="M102 0v8q70 0 88 37t18 173v132v1506h156v-1584q0 -78 -12 -130t-29 -80t-51 -42t-61 -17t-77 -3h-32z" />
<glyph unicode="k" horiz-adv-x="698" d="M102 0v1856h156v-780l260 780h70l-262 -780l354 -1076h-150l-272 856v-856h-156z" />
<glyph unicode="l" horiz-adv-x="548" d="M102 0v1856h156v-1846h220v-10h-376z" />
<glyph unicode="m" horiz-adv-x="802" d="M102 0v1858h156l158 -1722l172 1722h154v-1858h-154v1636l-158 -1626h-4h-22h-4l-142 1626v-1636h-156z" />
<glyph unicode="n" horiz-adv-x="732" d="M102 0v1856l156 2l246 -1080v1078h154v-1856h-154v598l-246 1068v-1666h-156z" />
<glyph unicode="o" horiz-adv-x="830" d="M36 932q0 266 35 459t94 293t122 144t131 44q54 0 104 -25t101 -92t89 -169t62 -271t24 -383t-24 -383t-62 -271t-89 -168t-101 -91t-104 -25q-68 0 -131 44t-122 143t-94 292t-35 459zM194 894q0 -442 59 -666t165 -224q216 0 216 890v38v40q0 892 -216 892 q-106 0 -165 -225t-59 -667v-40v-38z" />
<glyph unicode="p" horiz-adv-x="696" d="M102 0v1856h260q70 0 120 -25t77 -62t42 -100t19 -118t4 -139q0 -68 -1 -104t-6 -93t-17 -87t-33 -67t-52 -56t-79 -32t-110 -13h-8h-60v-960h-156zM258 972h58q104 0 127 96t23 388q0 254 -30 322t-150 68h-28v-874z" />
<glyph unicode="q" horiz-adv-x="912" d="M84 928q0 266 35 459t95 292t124 143t136 44q56 0 107 -25t104 -91t91 -168t62 -270t24 -384t-24 -384t-62 -270t-91 -168t-104 -91t-107 -25q-72 0 -136 44t-124 143t-95 292t-35 459zM154 18v14q122 0 291 -61t223 -65q11 -1 22 -1q35 0 62 10q36 13 54 37t26 40t12 32 h10q7 -23 7 -46q0 -36 -17 -73q-28 -61 -120 -71q-20 -2 -38 -2q-30 0 -57 6q-43 10 -71 24t-89 50t-109 60t-100 36t-80 12zM234 890q0 -442 64 -666t176 -224q110 0 171 223t61 667v38v40q0 442 -61 666t-171 224q-112 0 -176 -225t-64 -665v-40v-38z" />
<glyph unicode="r" horiz-adv-x="666" d="M104 2v1856h240q134 0 195 -96t61 -364q0 -216 -46 -315t-156 -117l218 -964h-154l-204 968l2 -968h-156zM258 976h46q46 0 76 26t43 80t17 105t4 131v134q0 166 -15 255t-40 116t-69 27h-60z" />
<glyph unicode="s" horiz-adv-x="770" d="M90 424v34h154q2 -198 15 -293t45 -131t98 -36t109 50t58 130t19 145q3 43 3 87q0 22 -1 44q-10 146 -77 265t-221 303q-168 204 -190 422q0 14 -0.5 48t-0.5 53q0 52 18 108q19 59 49 108t90 80t142 31q154 0 226 -108t72 -328v-72h-154v38q-2 200 -13 294t-40 130 t-91 36t-104 -32t-56 -78t-20 -100q-3 -23 -3 -44q0 -28 5 -52q12 -168 94 -294q40 -56 118 -146t129 -152t101 -166t68 -220q12 -60 12 -123q0 -38 -4 -77q-12 -104 -44 -191t-109 -143t-185 -56q-164 0 -238 108t-74 328z" />
<glyph unicode="t" horiz-adv-x="762" d="M36 1848v8h700v-8h-284v-1848h-154v1848h-262z" />
<glyph unicode="u" horiz-adv-x="874" d="M102 390v1472h154v-1614q0 -108 45 -173q42 -61 146 -61h13q208 4 208 234v1614h160v-1472q0 -228 -83 -310q-81 -80 -275 -80h-10q-200 4 -279 83t-79 307z" />
<glyph unicode="v" horiz-adv-x="740" d="M30 1856h156l194 -1680l186 1680h156l-224 -1856h-234z" />
<glyph unicode="w" horiz-adv-x="830" d="M102 0v1856l156 2v-1634l146 744h2h24l158 -744v1634h156v-1858h-156l-168 902l-162 -902h-156z" />
<glyph unicode="x" horiz-adv-x="670" d="M30 0l200 922l-200 934h156l148 -882l150 882h154l-200 -930l202 -926h-156l-150 874l-148 -874h-156z" />
<glyph unicode="y" horiz-adv-x="660" d="M30 1856l86 2h70l148 -890l148 890h156l-228 -954l2 -904h-156v902z" />
<glyph unicode="z" horiz-adv-x="682" d="M102 0l382 1848h-340l-4 8h498l-380 -1846h372v-10h-528z" />
<glyph unicode="{" horiz-adv-x="620" d="M112 908v14q120 26 120 74q0 250 19 431t50 285t79 162t96 73t112 9v-28q-70 8 -109 -57t-63 -191q-24 -124 -28 -410v-274q0 -36 -27 -58t-67 -22q36 0 65 -31t29 -63q0 -238 4 -386q18 -474 148 -474v-26q-56 0 -98 17t-84 71t-68 149t-42 258t-16 391q0 56 -120 86z " />
<glyph unicode="|" horiz-adv-x="288" d="M102 0v1858h110v-1858h-110z" />
<glyph unicode="}" horiz-adv-x="616" d="M112 1928v28q64 6 112 -9t96 -73t79 -162t50 -285t19 -431q0 -48 120 -74v-14q-120 -30 -120 -86q0 -228 -16 -391t-43 -258t-69 -149t-83 -71t-99 -17v26q134 0 148 474q6 112 6 386q0 32 29 63t65 31q-40 0 -67 22t-27 58v274q-4 286 -28 410q-24 128 -64 192t-108 56z " />
<glyph unicode="~" horiz-adv-x="540" d="M22 578q0 54 39 94t93 40q46 0 74 -17t38 -37t27 -37t43 -17q32 0 47 30t15 56h108q0 -64 -37 -109t-99 -45q-38 0 -65 17t-38 36t-30 36t-41 17q-24 0 -41 -22t-17 -42h-116z" />
<glyph unicode="&#xa1;" horiz-adv-x="324" d="M102 1758v104h106v-104h-106zM104 6l34 1602h84l38 -1602h-156z" />
<glyph unicode="&#xa2;" horiz-adv-x="800" d="M84 788v280q0 112 1 178t8 161t20 151t37 121t60 100t89 59t121 24q178 0 255 -107t77 -329v-72h-154v38q0 194 -19 293t-55 133t-104 34q-110 0 -152 -146q-36 -118 -30 -464v-628q-6 -346 30 -464q42 -146 152 -146q42 0 72 18t55 67t38 145t13 240h154v-44 q0 -222 -77 -328t-255 -106q-68 0 -121 24t-89 58t-60 99t-37 122t-20 151t-8 160t-1 178zM382 0h90v-168h-90v168zM382 1858v150h90v-150h-90z" />
<glyph unicode="&#xa3;" horiz-adv-x="956" d="M102 0q0 2 11 24t33 76t44 118q40 118 76 284q94 408 94 1146q0 104 112 158q108 58 246 58q88 0 164 -17t137 -71t61 -136v-10v-50h-154v40q0 82 -61 150t-147 68q-90 0 -149 -63t-59 -151q0 -360 -28 -680q-26 -304 -66 -470q-42 -192 -124 -412l-36 -62h-4h-2h-6h-2 h-2h-2h-4h-2h-2h-4h-2h-2h-4h-2h-2h-2h-6h-2h-4h-4h-4h-2h-4h-4h-4h-4h-4h-4h-4h-2h-6h-6h-2h-6h-6h-4h-4h-24zM214 0l24 26h488q82 0 129 65t47 155v30h156v-50q0 -60 -21 -103t-52 -66t-79 -36t-88 -16t-94 -3h-164zM222 1098v22h480v-22h-480z" />
<glyph unicode="&#xa4;" horiz-adv-x="498" d="M102 606l124 114l30 -28l-64 -86h-82h-8zM102 942h8h82l72 -100l-32 -18zM180 777q0 47 32 81t80 34t80 -34q38 -34 38 -81t-38 -81q-32 -32 -80 -32t-80 32q-32 34 -32 81zM233 764q11 -34 42 -43t61 15q20 20 18 45t-19 40t-40 19t-45 -18q-28 -24 -17 -58zM330 696 l32 24l124 -114h-4h-86zM330 850q14 -2 21 -5t7 -6v-5q-2 -6 2 -10l126 118h-4h-86z" />
<glyph unicode="&#xa5;" horiz-adv-x="528" d="M30 1856l86 2h70l148 -890l148 890h156l-228 -954l2 -904h-156v902zM146 720v60h372v-60h-372zM146 874v56h372v-56h-372z" />
<glyph unicode="&#xa6;" horiz-adv-x="266" d="M102 0v842h80v-842h-80zM102 1016v842h80v-842h-80z" />
<glyph unicode="&#xa7;" horiz-adv-x="974" d="M102 -116h214q144 0 192 130q26 82 36 184q6 64 6 204v44v32q0 146 -84 254q-60 80 -114 130q-2 0 -34 28q-60 64 -96 112q-100 140 -108 320q-8 222 64 314t218 92q302 0 284 -486l-94 10q-42 94 -76 298q-8 70 -38 119t-76 51q-90 0 -110 -58q-16 -60 -16 -262v-32 q0 -144 74 -238q66 -82 112 -128l16 -10l26 -26q62 -66 78 -86q108 -142 116 -348q0 -372 -80 -515t-266 -143h-96h-148v10zM516 38v10h212q148 0 190 132q36 96 40 182q4 46 4 206v42v30q0 204 -198 388q-10 10 -30 28q-64 62 -100 112q-98 142 -106 318q-8 224 63 316 t219 92q304 0 282 -488h-152v130q0 40 -6 142q-20 208 -124 208q-92 0 -110 -56q-18 -52 -18 -264v-34q0 -128 72 -236q60 -76 118 -130l10 -10l26 -26q32 -26 80 -86q114 -126 114 -346q0 -374 -78 -517t-264 -143h-96h-148z" />
<glyph unicode="&#xa8;" horiz-adv-x="482" d="M24 1984q0 28 20 47t46 19t46 -19t20 -47t-20 -47t-46 -19t-46 19t-20 47zM308 1984q0 28 20 47t46 19t46 -19t20 -47t-20 -47t-46 -19t-46 19t-20 47z" />
<glyph unicode="&#xa9;" horiz-adv-x="800" d="M102 1082q0 190 98 284q114 104 304 104q202 0 290 -98q58 -48 77 -190t-7 -224q-28 -146 -148 -194q-92 -32 -232 -32q-84 0 -132 10q-250 42 -250 340zM276 1102q0 -166 42 -260q48 -104 174 -104q88 0 129 25t61 101q24 84 24 244q0 162 -40 254q-42 104 -162 104 q-102 0 -165 -100t-63 -264zM390 1054q0 -100 18 -166q8 -30 20 -45t25 -19t39 -6q48 0 70 26q28 28 28 104v12h-46q0 -106 -24 -130q-14 -14 -38 -8t-36 42q-12 32 -12 138l4 80q0 144 4 208q12 84 56 84q46 0 46 -136v-12h46q0 68 -25 109t-65 41q-70 0 -88 -78 q-22 -74 -22 -244z" />
<glyph unicode="&#xaa;" horiz-adv-x="378" d="M102 1178v52v52q0 52 86 52q76 0 76 -52l2 -54v-56q6 -46 10 -46q18 2 20 50h32q0 -56 -52 -56q-30 0 -34 16q-18 -18 -54 -18q-86 0 -86 60zM138 1172q0 -46 50 -46q50 2 50 46v82v22q0 48 -50 48q-20 0 -35 -15t-15 -33v-54v-50z" />
<glyph unicode="&#xab;" horiz-adv-x="496" d="M100 740v118l166 134v-30v-80l-128 -86l128 -72v-84v-28zM314 740v118l166 134v-30v-80l-128 -86l128 -72v-84v-28z" />
<glyph unicode="&#xac;" horiz-adv-x="530" d="M102 630v62h398v-62h-398zM446 430v262h80v-262h-80z" />
<glyph unicode="&#xad;" horiz-adv-x="438" d="M102 578v54h304v-54h-304z" />
<glyph unicode="&#xae;" horiz-adv-x="800" d="M102 1082q0 190 98 284q114 104 304 104q202 0 290 -98q58 -48 77 -190t-7 -224q-28 -146 -148 -194q-92 -32 -232 -32q-84 0 -132 10q-250 42 -250 340zM276 1102q0 -166 42 -260q48 -104 174 -104q88 0 129 25t61 101q24 84 24 244q0 162 -40 254q-42 104 -162 104 q-102 0 -165 -100t-63 -264zM426 828h48l-2 288l62 -288h46l-64 288q2 0 14 6q46 18 46 120q0 142 -78 142h-72v-556zM472 1120l2 262h18q36 0 36 -124v-72q0 -40 -8 -48q0 -8 -8 -10q-6 -8 -18 -8h-22z" />
<glyph unicode="&#xaf;" horiz-adv-x="438" d="M102 1554v58h304v-58h-304z" />
<glyph unicode="&#xb0;" horiz-adv-x="432" d="M104 1552q0 52 40 92t92 40t92 -40t40 -92t-40 -92t-92 -40t-92 40t-40 92zM168 1536q14 -38 49 -47t67 15q32 32 19 70t-48 48t-69 -16q-32 -32 -18 -70z" />
<glyph unicode="&#xb1;" horiz-adv-x="700" d="M62 122v124h774v-124h-774zM62 766v126h774v-126h-774zM386 442v774h126v-774h-126z" />
<glyph unicode="&#xb2;" horiz-adv-x="378" d="M98 808q42 54 70 114q94 184 94 364q0 58 -54 58q-24 0 -40 -19t-16 -43v-8h-48v12v2q0 32 31 50t73 18q96 0 96 -72q0 -154 -70 -312q-34 -74 -78 -154h148v-10h-4h-2h-2h-4h-2h-2h-2h-4h-2h-2h-4h-2h-2h-4h-2h-2h-2h-4h-2h-2h-4h-2h-2h-4h-2h-2h-2h-4h-2h-2h-4h-2h-2 h-4h-2h-2h-2h-4h-2h-2h-4h-2h-2h-4h-2h-2h-2h-4h-2h-2h-4h-2h-2h-4h-2h-2h-2h-4h-2h-2h-4h-2h-2h-4h-2h-2h-2h-4h-2h-2h-4h-2h-2h-4h-2h-10z" />
<glyph unicode="&#xb3;" horiz-adv-x="378" d="M98 870v70h46v-76q0 -54 56 -54t56 54v8v170q0 54 -54 54v8q54 0 54 54v122v6q0 24 -15 43t-39 19q-46 0 -46 -66v-12h-50v10v8q0 30 28 49t68 19t71 -18t31 -48v-122q0 -46 -76 -70q76 -10 76 -70v-158q0 -32 -31 -50t-71 -18q-42 0 -73 18t-31 50z" />
<glyph unicode="&#xb4;" horiz-adv-x="344" d="M42 1994l114 172h146l-166 -172h-94z" />
<glyph unicode="&#xb5;" horiz-adv-x="758" d="M102 0v678q0 154 2 450q6 450 6 452h142v-14q0 -14 -1 -44t-1 -68t-1 -98t-1 -124q-6 -342 -6 -348q0 -82 59 -142t149 -60q94 0 151 55t57 141q0 120 2 352q6 348 6 350h158v-16q0 -16 -1 -46t-1 -71t-1 -103t-1 -128q-4 -236 -4 -360q-4 -216 -366 -216 q-116 -6 -208 68v-64v-598v-46h-140z" />
<glyph unicode="&#xb6;" horiz-adv-x="670" d="M102 1384q0 90 11 168t34 149t70 113t111 42h218v-1856h-132v904h-120q-192 0 -192 480zM224 1466q2 -38 2 -82v-34q0 -108 4 -182q4 -68 10 -94q34 -110 60 -130q16 -14 38 -14h76v892h-102q-78 0 -88 -190v-166zM634 0v1856h120v-1856h-120z" />
<glyph unicode="&#xb7;" horiz-adv-x="302" d="M114 809q14 37 47 46t61 -19q42 -44 -1 -88t-91 -2q-30 26 -16 63z" />
<glyph unicode="&#xb8;" horiz-adv-x="400" d="M102 -98h84q0 -66 54 -66q26 0 39 33t1 66t-48 33h-80l74 94h56l12 2l-52 -72q44 0 73 -18t37 -34t8 -26q0 -102 -120 -102q-138 0 -138 76v14z" />
<glyph unicode="&#xb9;" horiz-adv-x="306" d="M98 1250l72 80h48v-546h-48v518l-48 -52h-24z" />
<glyph unicode="&#xba;" horiz-adv-x="414" d="M76 1538q0 62 44 108q46 46 109 46t109 -46t46 -108t-46 -108t-109 -46t-109 46q-44 46 -44 108zM151 1522q17 -46 58 -58t79 20q24 24 24 59t-24 59q-22 22 -58 22t-60 -22q-36 -34 -19 -80z" />
<glyph unicode="&#xbb;" horiz-adv-x="496" d="M104 614v28v82l128 84l-128 74v82v30l166 -128v-120zM314 614v28v82l128 84l-128 74v82v30l166 -128v-120z" />
<glyph unicode="&#xbc;" horiz-adv-x="402" d="M102 1208l50 48h30v-328h-30v310l-34 -30h-16zM130 606l162 572l24 -4l-160 -568h-26zM216 506v6q14 0 26 32l54 192h32q-8 -26 -20 -72t-22 -82t-10 -38q-12 -32 -20 -32h96v-6h-136zM328 408v278h34v-278h-34z" />
<glyph unicode="&#xbd;" horiz-adv-x="420" d="M102 1208l50 48h30v-328h-30v310l-34 -30h-16zM130 606l162 572l24 -4l-160 -568h-26zM250 408q110 146 110 286q0 32 -40 36q-14 0 -25 -11t-11 -27v-6h-32v8v2q0 38 68 42q66 0 66 -46q0 -64 -26 -128q-34 -96 -74 -148h100v-8h-4h-2h-2h-4h-2h-2h-2h-4h-2h-2h-6h-6h-2 h-2h-2h-6h-2h-4h-4h-4h-4h-2h-6h-2h-6h-2h-6h-4h-4h-4h-6h-6h-20z" />
<glyph unicode="&#xbe;" horiz-adv-x="454" d="M102 970v38h28v-42q0 -30 36 -30q38 0 38 30v4v100q0 32 -34 32v2q34 0 34 34v74q0 16 -10 27t-24 11q-32 0 -32 -38v-6h-34v2v6q0 18 20 28t46 10q24 0 44 -10t20 -26v-72q0 -28 -48 -40q48 -12 48 -40v-94q0 -18 -20 -30t-44 -12q-26 0 -47 12t-21 30zM198 606l162 572 l22 -4l-160 -568h-24zM284 506v6q14 0 26 32l54 192h32q-8 -26 -21 -72t-23 -82t-10 -38q-12 -32 -22 -32h100v-6h-136zM396 408v278h30v-278h-30z" />
<glyph unicode="&#xbf;" horiz-adv-x="760" d="M102 762q0 90 77 155t189 91q36 8 100 10h14v634h152v-656h-132l-34 -2q-96 0 -152 -48t-56 -138v-378v-198v-28q0 -184 206 -184q208 0 208 184v260h154v-240q0 -228 -360 -228q-358 0 -364 232v106q0 14 -1 162t-1 266zM528 1762v104h106v-104h-106z" />
<glyph unicode="&#xc0;" d="M30 0l220 1858h246l228 -1858h-86h-68l-52 440h-282l-50 -440h-24h-132zM236 450h282l-142 1230zM252 2308h146l114 -172h-94z" />
<glyph unicode="&#xc1;" d="M30 0h132h24l50 440h282l52 -440h68h86l-228 1858h-246zM236 450l140 1230l142 -1230h-282zM252 2136l114 172h146l-166 -172h-94z" />
<glyph unicode="&#xc2;" d="M30 0l220 1858h246l228 -1858h-86h-68l-52 440h-282l-50 -440h-24h-132zM74 2116l246 174h110l258 -174h-162l-150 124l-136 -124h-166zM236 450h282l-142 1230z" />
<glyph unicode="&#xc3;" d="M30 0h132h24l50 440h282l52 -440h68h86l-228 1858h-246zM140 2106q0 54 39 94t93 40q46 0 74 -17t38 -37t27 -37t43 -17q32 0 47 30t15 56h108q0 -64 -37 -109t-99 -45q-38 0 -65 17t-38 36t-30 36t-41 17q-24 0 -41 -22t-17 -42h-116zM236 450l140 1230l142 -1230h-282z " />
<glyph unicode="&#xc4;" d="M30 0h132h24l50 440h282l52 -440h68h86l-228 1858h-246zM174 2126q0 26 19 46t47 20t47 -20t19 -46t-19 -46t-47 -20t-47 20t-19 46zM236 450l140 1230l142 -1230h-282zM458 2126q0 26 19 46t47 20t47 -20t19 -46t-19 -46t-47 -20t-47 20t-19 46z" />
<glyph unicode="&#xc5;" d="M30 0l220 1858h246l228 -1858h-86h-68l-52 440h-282l-50 -440h-24h-132zM128 2050q0 106 74 180t180 74t180 -74t74 -180t-74 -180t-180 -74t-180 74t-74 180zM218 2050q0 -68 48 -116t116 -48t116 48t48 116t-48 116t-116 48t-116 -48t-48 -116zM236 450h282l-142 1230z " />
<glyph unicode="&#xc7;" horiz-adv-x="840" d="M102 786v278q0 112 1 178t8 161t20 152t37 122t60 100t89 59t121 24q178 0 255 -107t77 -331v-72h-154v38q0 194 -19 293t-55 133t-104 34q-110 0 -152 -144q-36 -122 -30 -466v-626q-6 -344 30 -466q42 -146 152 -146q58 0 94 33t60 140t24 297h154v-44q0 -210 -70 -316 t-228 -114l-42 -64q116 0 116 -78q0 -98 -126 -98q-130 0 -130 88v16h82q0 -28 2 -43t14 -28t34 -13q34 0 49 34t0 67t-51 33h-82l68 86q-62 4 -110 30t-80 62t-54 101t-34 121t-18 147t-7 156t-1 173z" />
<glyph unicode="&#xc8;" horiz-adv-x="610" d="M102 1856h476v-8h-320v-870h320v-10h-320v-958h320v-10h-474zM174 2308h146l114 -172h-94z" />
<glyph unicode="&#xc9;" horiz-adv-x="610" d="M102 1856l2 -1856h474v10h-320v958h320v10h-320v870h320v8h-476zM174 2136l114 172h146l-166 -172h-94z" />
<glyph unicode="&#xca;" horiz-adv-x="610" d="M-2 2116l246 174h110l258 -174h-162l-150 124l-136 -124h-166zM102 1856h476v-8h-320v-870h320v-10h-320v-958h320v-10h-474z" />
<glyph unicode="&#xcb;" horiz-adv-x="610" d="M96 2126q0 26 20 46t46 20t46 -20t20 -46t-20 -46t-46 -20t-46 20t-20 46zM102 1856l2 -1856h474v10h-320v958h320v10h-320v870h320v8h-476zM380 2126q0 26 20 46t46 20t46 -20t20 -46t-20 -46t-46 -20t-46 20t-20 46z" />
<glyph unicode="&#xcc;" horiz-adv-x="376" d="M58 2308h146l114 -172h-94zM102 0v1856h156v-1856h-156z" />
<glyph unicode="&#xcd;" horiz-adv-x="376" d="M58 2136l114 172h146l-166 -172h-94zM102 0h156v1856h-156v-1856z" />
<glyph unicode="&#xce;" horiz-adv-x="376" d="M-118 2116l246 174h110l258 -174h-162l-150 124l-136 -124h-166zM102 0v1856h156v-1856h-156z" />
<glyph unicode="&#xcf;" horiz-adv-x="376" d="M-20 2126q0 26 20 46t46 20t46 -20t20 -46t-20 -46t-46 -20t-46 20t-20 46zM102 0h156v1856h-156v-1856zM264 2126q0 26 20 46t46 20t46 -20t20 -46t-20 -46t-46 -20t-46 20t-20 46z" />
<glyph unicode="&#xd0;" horiz-adv-x="612" d="M48 922v66h332v-66h-332zM106 0v1856h134h100q136 -4 202 -54q150 -136 150 -866q0 -600 -82 -798q-38 -86 -97 -112t-163 -26h-244zM262 10h36h46q62 0 92 26t54 112q46 166 46 798q0 614 -52 760q-28 88 -62 115t-98 27h-62v-1838z" />
<glyph unicode="&#xd1;" horiz-adv-x="732" d="M102 0h156v1666l246 -1068v-598h154v1856h-154v-1078l-246 1080l-156 -2v-1856zM124 2106q0 54 39 94t93 40q46 0 74 -17t38 -37t27 -37t43 -17q32 0 47 30t15 56h108q0 -64 -37 -109t-99 -45q-38 0 -65 17t-38 36t-30 36t-41 17q-24 0 -41 -22t-17 -42h-116z" />
<glyph unicode="&#xd2;" horiz-adv-x="922" d="M90 932q0 266 35 459t94 293t122 144t131 44q54 0 104 -25t101 -92t89 -169t62 -271t24 -383t-24 -383t-62 -271t-89 -168t-101 -91t-104 -25q-68 0 -131 44t-122 143t-94 292t-35 459zM248 894q0 -442 59 -666t165 -224q216 0 216 890v38v40q0 892 -216 892 q-106 0 -165 -225t-59 -667v-40v-38zM330 2308h146l114 -172h-94z" />
<glyph unicode="&#xd3;" horiz-adv-x="922" d="M90 932q0 -266 35 -459t94 -292t122 -143t131 -44q54 0 104 25t101 91t89 168t62 271t24 383t-24 383t-62 271t-89 169t-101 92t-104 25q-68 0 -131 -44t-122 -144t-94 -293t-35 -459zM248 894v38v40q0 442 59 667t165 225q216 0 216 -892v-40v-38q0 -890 -216 -890 q-106 0 -165 224t-59 666zM330 2136l114 172h146l-166 -172h-94z" />
<glyph unicode="&#xd4;" horiz-adv-x="922" d="M90 932q0 266 35 459t94 293t122 144t131 44q54 0 104 -25t101 -92t89 -169t62 -271t24 -383t-24 -383t-62 -271t-89 -168t-101 -91t-104 -25q-68 0 -131 44t-122 143t-94 292t-35 459zM154 2116l246 174h110l258 -174h-162l-150 124l-136 -124h-166zM248 894 q0 -442 59 -666t165 -224q216 0 216 890v38v40q0 892 -216 892q-106 0 -165 -225t-59 -667v-40v-38z" />
<glyph unicode="&#xd5;" horiz-adv-x="922" d="M90 932q0 -266 35 -459t94 -292t122 -143t131 -44q54 0 104 25t101 91t89 168t62 271t24 383t-24 383t-62 271t-89 169t-101 92t-104 25q-68 0 -131 -44t-122 -144t-94 -293t-35 -459zM218 2106q0 54 39 94t93 40q46 0 74 -17t38 -37t27 -37t43 -17q32 0 47 30t15 56h108 q0 -64 -37 -109t-99 -45q-38 0 -65 17t-38 36t-30 36t-41 17q-24 0 -41 -22t-17 -42h-116zM248 894v38v40q0 442 59 667t165 225q216 0 216 -892v-40v-38q0 -890 -216 -890q-106 0 -165 224t-59 666z" />
<glyph unicode="&#xd6;" horiz-adv-x="922" d="M90 932q0 -266 35 -459t94 -292t122 -143t131 -44q54 0 104 25t101 91t89 168t62 271t24 383t-24 383t-62 271t-89 169t-101 92t-104 25q-68 0 -131 -44t-122 -144t-94 -293t-35 -459zM248 894v38v40q0 442 59 667t165 225q216 0 216 -892v-40v-38q0 -890 -216 -890 q-106 0 -165 224t-59 666zM252 2126q0 26 20 46t46 20t46 -20t20 -46t-20 -46t-46 -20t-46 20t-20 46zM536 2126q0 26 20 46t46 20t46 -20t20 -46t-20 -46t-46 -20t-46 20t-20 46z" />
<glyph unicode="&#xd7;" horiz-adv-x="530" d="M30 2l200 258l-200 260h156l148 -248l150 248h154l-200 -260l202 -258h-156l-150 244l-148 -244h-156z" />
<glyph unicode="&#xd8;" horiz-adv-x="776" d="M56 788v280q0 110 1 176t8 161t20 151t37 122t59 101t87 59t120 24h4h2q60 0 108 -16t82 -52t59 -74t40 -101t25 -116t14 -137t5 -143t1 -155v-280q0 -112 -1 -178t-8 -160t-20 -151t-37 -122t-60 -99t-89 -58t-121 -24h-6q-68 0 -120 25t-86 60t-59 99t-37 121t-19 151 t-8 160t-1 176zM102 -26l532 1904h128l-536 -1904h-124zM210 614q-6 -346 30 -464q18 -66 55 -105t87 -41h10q110 0 152 146q36 118 30 464v628q6 346 -30 464q-40 140 -148 146h-4q-110 0 -152 -146q-36 -118 -30 -464v-628z" />
<glyph unicode="&#xd9;" horiz-adv-x="874" d="M102 390v1472h154v-1614q0 -108 45 -173t159 -61q208 4 208 234v1614h160v-1472q0 -228 -83 -310t-285 -80q-200 4 -279 83t-79 307zM306 2308h146l114 -172h-94z" />
<glyph unicode="&#xda;" horiz-adv-x="874" d="M102 390q0 -228 79 -307t279 -83q202 -2 285 80t83 310v1472h-160v-1614q0 -230 -208 -234q-114 -4 -159 61t-45 173v1614h-154v-1472zM306 2136l114 172h146l-166 -172h-94z" />
<glyph unicode="&#xdb;" horiz-adv-x="874" d="M102 390v1472h154v-1614q0 -108 45 -173t159 -61q208 4 208 234v1614h160v-1472q0 -228 -83 -310t-285 -80q-200 4 -279 83t-79 307zM130 2116l246 174h110l258 -174h-162l-150 124l-136 -124h-166z" />
<glyph unicode="&#xdc;" horiz-adv-x="874" d="M102 390q0 -228 79 -307t279 -83q202 -2 285 80t83 310v1472h-160v-1614q0 -230 -208 -234q-114 -4 -159 61t-45 173v1614h-154v-1472zM258 2126q0 26 19 46t47 20t47 -20t19 -46t-19 -46t-47 -20t-47 20t-19 46zM542 2126q0 26 19 46t47 20t47 -20t19 -46t-19 -46 t-47 -20t-47 20t-19 46z" />
<glyph unicode="&#xdd;" horiz-adv-x="660" d="M330 1994l114 172h146l-166 -172h-94zM30 1856l86 2h70l148 -890l148 890h156l-228 -954l2 -904h-156v902z" />
<glyph unicode="&#xde;" horiz-adv-x="402" d="M10 0v1856h156l-6 -1174h76q42 0 64 36t38 106q8 46 10 94q2 80 2 184v32v80q4 94 0 172q-8 186 -88 186h-138v34h126q122 0 192 -132t68 -340q0 -152 -21 -255t-58 -148t-70 -60t-75 -15h-126v-656h-150z" />
<glyph unicode="&#xdf;" horiz-adv-x="982" d="M54 0v12q82 0 107 42t25 158v1378q0 130 85 202t249 72q152 0 242 -63t90 -199v-314q0 -104 -61 -176t-131 -72q102 -16 182 -74t80 -172v-252v-300q0 -116 -116 -184q-108 -58 -258 -58h-50v12h50q102 0 155 53t53 151v300v302q0 92 -58 149t-150 57q-90 0 -148 -63 t-58 -149v-46v-550q0 -72 -36 -126q-66 -90 -252 -90zM342 884q16 70 75 112t133 42q148 0 148 230v402q0 80 -49 130t-129 50q-76 0 -127 -55t-51 -131v-336v-444z" />
<glyph unicode="&#xe0;" d="M30 0l220 1858h246l228 -1858h-86h-68l-52 440h-282l-50 -440h-24h-132zM236 450h282l-142 1230zM252 2166h146l114 -172h-94z" />
<glyph unicode="&#xe1;" d="M30 0h132h24l50 440h282l52 -440h68h86l-228 1858h-246zM236 450l140 1230l142 -1230h-282zM252 1994l114 172h146l-166 -172h-94z" />
<glyph unicode="&#xe2;" d="M30 0l220 1858h246l228 -1858h-86h-68l-52 440h-282l-50 -440h-24h-132zM74 1974l246 174h110l258 -174h-162l-150 124l-136 -124h-166zM236 450h282l-142 1230z" />
<glyph unicode="&#xe3;" d="M30 0h132h24l50 440h282l52 -440h68h86l-228 1858h-246zM140 1964q0 54 39 94t93 40q46 0 74 -17t38 -37t27 -37t43 -17q32 0 47 30t15 56h108q0 -64 -37 -109t-99 -45q-38 0 -65 17t-38 36t-30 36t-41 17q-24 0 -41 -22t-17 -42h-116zM236 450l140 1230l142 -1230h-282z " />
<glyph unicode="&#xe4;" d="M30 0h132h24l50 440h282l52 -440h68h86l-228 1858h-246zM174 1984q0 28 19 47t47 19t47 -19t19 -47t-19 -47t-47 -19t-47 19t-19 47zM236 450l140 1230l142 -1230h-282zM458 1984q0 28 19 47t47 19t47 -19t19 -47t-19 -47t-47 -19t-47 19t-19 47z" />
<glyph unicode="&#xe5;" d="M30 0l220 1858h246l228 -1858h-86h-68l-52 440h-282l-50 -440h-24h-132zM128 2026q0 106 74 180t180 74t180 -74t74 -180t-74 -180t-180 -74t-180 74t-74 180zM218 2026q0 -68 48 -116t116 -48t116 48t48 116t-48 116t-116 48t-116 -48t-48 -116zM236 450h282l-142 1230z " />
<glyph unicode="&#xe6;" horiz-adv-x="880" d="M10 0l220 1858h242l230 -1858h-84h-68l-52 440h-282l-50 -440h-26h-130zM216 450h282l-142 1230zM408 1858l628 -2v-8h-560l112 -892h448v-20h-448l114 -926h334v-10h-400l-56 466z" />
<glyph unicode="&#xe7;" horiz-adv-x="816" d="M102 786v278q0 112 1 178t8 161t20 152t37 122t60 100t89 59t121 24q178 0 255 -107t77 -331v-72h-154v38q0 194 -19 293t-55 133t-104 34q-110 0 -152 -144q-36 -122 -30 -466v-626q-6 -344 30 -466q42 -146 152 -146q58 0 94 33t60 140t24 297h154v-44q0 -210 -70 -316 t-228 -114l-42 -64q116 0 116 -78q0 -98 -126 -98q-130 0 -130 88v16h82q0 -28 2 -43t14 -28t34 -13q34 0 49 34t0 67t-51 33h-82l68 86q-62 4 -110 30t-80 62t-54 101t-34 121t-18 147t-7 156t-1 173z" />
<glyph unicode="&#xe8;" horiz-adv-x="656" d="M102 1856h476v-8h-320v-870h320v-10h-320v-958h320v-10h-474zM198 2166h146l114 -172h-94z" />
<glyph unicode="&#xe9;" horiz-adv-x="656" d="M102 1856l2 -1856h474v10h-320v958h320v10h-320v870h320v8h-476zM198 1994l114 172h146l-166 -172h-94z" />
<glyph unicode="&#xea;" horiz-adv-x="656" d="M22 1974l246 174h110l258 -174h-162l-150 124l-136 -124h-166zM102 1856h476v-8h-320v-870h320v-10h-320v-958h320v-10h-474z" />
<glyph unicode="&#xeb;" horiz-adv-x="656" d="M102 1856l2 -1856h474v10h-320v958h320v10h-320v870h320v8h-476zM120 1984q0 28 20 47t46 19t46 -19t20 -47t-20 -47t-46 -19t-46 19t-20 47zM404 1984q0 28 20 47t46 19t46 -19t20 -47t-20 -47t-46 -19t-46 19t-20 47z" />
<glyph unicode="&#xec;" horiz-adv-x="376" d="M58 2166h146l114 -172h-94zM102 0v1856h156v-1856h-156z" />
<glyph unicode="&#xed;" horiz-adv-x="376" d="M58 1994l114 172h146l-166 -172h-94zM102 0h156v1856h-156v-1856z" />
<glyph unicode="&#xee;" horiz-adv-x="376" d="M-118 1974l246 174h110l258 -174h-162l-150 124l-136 -124h-166zM102 0v1856h156v-1856h-156z" />
<glyph unicode="&#xef;" horiz-adv-x="376" d="M-20 1984q0 28 20 47t46 19t46 -19t20 -47t-20 -47t-46 -19t-46 19t-20 47zM102 0h156v1856h-156v-1856zM264 1984q0 28 20 47t46 19t46 -19t20 -47t-20 -47t-46 -19t-46 19t-20 47z" />
<glyph unicode="&#xf0;" horiz-adv-x="470" d="M-36 922v66h332v-66h-332zM24 0v1856h134h98q136 -4 204 -54q148 -136 148 -866q0 -600 -82 -798q-42 -88 -98 -113t-160 -25h-244zM180 10h34h46q64 0 93 25t53 113q44 142 50 798q0 602 -56 760q-28 88 -60 115t-100 27h-60v-1838z" />
<glyph unicode="&#xf1;" horiz-adv-x="732" d="M102 0h156v1666l246 -1068v-598h154v1856h-154v-1078l-246 1080l-156 -2v-1856zM124 1964q0 54 39 94t93 40q46 0 74 -17t38 -37t27 -37t43 -17q32 0 47 30t15 56h108q0 -64 -37 -109t-99 -45q-38 0 -65 17t-38 36t-30 36t-41 17q-24 0 -41 -22t-17 -42h-116z" />
<glyph unicode="&#xf2;" horiz-adv-x="830" d="M36 932q0 266 35 459t94 293t122 144t131 44q54 0 104 -25t101 -92t89 -169t62 -271t24 -383t-24 -383t-62 -271t-89 -168t-101 -91t-104 -25q-68 0 -131 44t-122 143t-94 292t-35 459zM194 894q0 -442 59 -666t165 -224q216 0 216 890v38v40q0 892 -216 892 q-106 0 -165 -225t-59 -667v-40v-38zM284 2166h146l114 -172h-94z" />
<glyph unicode="&#xf3;" horiz-adv-x="830" d="M36 932q0 -266 35 -459t94 -292t122 -143t131 -44q54 0 104 25t101 91t89 168t62 271t24 383t-24 383t-62 271t-89 169t-101 92t-104 25q-68 0 -131 -44t-122 -144t-94 -293t-35 -459zM194 894v38v40q0 442 59 667t165 225q216 0 216 -892v-40v-38q0 -890 -216 -890 q-106 0 -165 224t-59 666zM284 1994l114 172h146l-166 -172h-94z" />
<glyph unicode="&#xf4;" horiz-adv-x="830" d="M36 932q0 266 35 459t94 293t122 144t131 44q54 0 104 -25t101 -92t89 -169t62 -271t24 -383t-24 -383t-62 -271t-89 -168t-101 -91t-104 -25q-68 0 -131 44t-122 143t-94 292t-35 459zM108 1974l246 174h110l258 -174h-162l-150 124l-136 -124h-166zM194 894 q0 -442 59 -666t165 -224q216 0 216 890v38v40q0 892 -216 892q-106 0 -165 -225t-59 -667v-40v-38z" />
<glyph unicode="&#xf5;" horiz-adv-x="830" d="M36 932q0 -266 35 -459t94 -292t122 -143t131 -44q54 0 104 25t101 91t89 168t62 271t24 383t-24 383t-62 271t-89 169t-101 92t-104 25q-68 0 -131 -44t-122 -144t-94 -293t-35 -459zM174 1964q0 54 39 94t93 40q46 0 74 -17t38 -37t27 -37t43 -17q32 0 47 30t15 56h108 q0 -64 -37 -109t-99 -45q-38 0 -65 17t-38 36t-30 36t-41 17q-24 0 -41 -22t-17 -42h-116zM194 894v38v40q0 442 59 667t165 225q216 0 216 -892v-40v-38q0 -890 -216 -890q-106 0 -165 224t-59 666z" />
<glyph unicode="&#xf6;" horiz-adv-x="830" d="M36 932q0 -266 35 -459t94 -292t122 -143t131 -44q54 0 104 25t101 91t89 168t62 271t24 383t-24 383t-62 271t-89 169t-101 92t-104 25q-68 0 -131 -44t-122 -144t-94 -293t-35 -459zM194 894v38v40q0 442 59 667t165 225q216 0 216 -892v-40v-38q0 -890 -216 -890 q-106 0 -165 224t-59 666zM206 1984q0 28 19 47t47 19t47 -19t19 -47t-19 -47t-47 -19t-47 19t-19 47zM490 1984q0 28 19 47t47 19t47 -19t19 -47t-19 -47t-47 -19t-47 19t-19 47z" />
<glyph unicode="&#xf7;" horiz-adv-x="778" d="M102 574v96h746v-96h-746zM380 352q0 42 28 72q30 32 72 32t72 -32q32 -30 32 -72t-32 -72q-30 -28 -72 -28t-72 28q-28 30 -28 72zM380 892q0 42 28 70q30 32 72 32t72 -32q32 -28 32 -70t-32 -70q-30 -30 -72 -30t-72 30q-28 28 -28 70z" />
<glyph unicode="&#xf9;" horiz-adv-x="874" d="M102 390v1472h154v-1614q0 -108 45 -173t159 -61q208 4 208 234v1614h160v-1472q0 -228 -83 -310t-285 -80q-200 4 -279 83t-79 307zM306 2166h146l114 -172h-94z" />
<glyph unicode="&#xfa;" horiz-adv-x="874" d="M102 390q0 -228 79 -307t279 -83q202 -2 285 80t83 310v1472h-160v-1614q0 -230 -208 -234q-114 -4 -159 61t-45 173v1614h-154v-1472zM306 1994l114 172h146l-166 -172h-94z" />
<glyph unicode="&#xfb;" horiz-adv-x="874" d="M102 390v1472h154v-1614q0 -108 45 -173t159 -61q208 4 208 234v1614h160v-1472q0 -228 -83 -310t-285 -80q-200 4 -279 83t-79 307zM130 1974l246 174h110l258 -174h-162l-150 124l-136 -124h-166z" />
<glyph unicode="&#xfc;" horiz-adv-x="874" d="M102 390q0 -228 79 -307t279 -83q202 -2 285 80t83 310v1472h-160v-1614q0 -230 -208 -234q-114 -4 -159 61t-45 173v1614h-154v-1472zM228 1984q0 28 20 47t46 19t46 -19t20 -47t-20 -47t-46 -19t-46 19t-20 47zM512 1984q0 28 20 47t46 19t46 -19t20 -47t-20 -47 t-46 -19t-46 19t-20 47z" />
<glyph unicode="&#xfd;" horiz-adv-x="660" d="M330 1994l114 172h146l-166 -172h-94zM30 1856l86 2h70l148 -890l148 890h156l-228 -954l2 -904h-156v902z" />
<glyph unicode="&#xfe;" horiz-adv-x="402" d="M10 0v1856h156l-6 -1174h76q42 0 64 36t38 106q8 46 10 94q2 80 2 184v32v80q4 94 0 172q-8 186 -88 186h-138v34h126q122 0 192 -132t68 -340q0 -152 -21 -255t-58 -148t-70 -60t-75 -15h-126v-656h-150z" />
<glyph unicode="&#xff;" horiz-adv-x="660" d="M30 1856l226 -954v-902h156l-2 904l228 954h-156l-148 -890l-148 890h-70zM122 1984q0 28 19 47t47 19t47 -19t19 -47t-19 -47t-47 -19t-47 19t-19 47zM406 1984q0 28 19 47t47 19t47 -19t19 -47t-19 -47t-47 -19t-47 19t-19 47z" />
<glyph unicode="&#x152;" horiz-adv-x="1532" d="M90 932q0 266 35 459t94 293t122 144t131 44q54 0 104 -25t101 -92t89 -169t62 -271t24 -383t-24 -383t-62 -271t-89 -168t-101 -91t-104 -25q-68 0 -131 44t-122 143t-94 292t-35 459zM248 894q0 -442 59 -666t165 -224q216 0 216 890v38v40q0 892 -216 892 q-106 0 -165 -225t-59 -667v-40v-38zM1024 1856h476v-8h-320v-870h320v-10h-320v-958h320v-10h-474z" />
<glyph unicode="&#x153;" horiz-adv-x="1486" d="M36 932q0 266 35 459t94 293t122 144t131 44q54 0 104 -25t101 -92t89 -169t62 -271t24 -383t-24 -383t-62 -271t-89 -168t-101 -91t-104 -25q-68 0 -131 44t-122 143t-94 292t-35 459zM194 894q0 -442 59 -666t165 -224q216 0 216 890v38v40q0 892 -216 892 q-106 0 -165 -225t-59 -667v-40v-38zM932 1856h476v-8h-320v-870h320v-10h-320v-958h320v-10h-474z" />
<glyph unicode="&#x178;" horiz-adv-x="660" d="M30 1856l226 -954v-902h156l-2 904l228 954h-156l-148 -890l-148 890h-70zM122 2126q0 26 19 46t47 20t47 -20t19 -46t-19 -46t-47 -20t-47 20t-19 46zM406 2126q0 26 19 46t47 20t47 -20t19 -46t-19 -46t-47 -20t-47 20t-19 46z" />
<glyph unicode="&#x2c6;" horiz-adv-x="708" d="M26 1974l246 174h110l258 -174h-162l-150 124l-136 -124h-166z" />
<glyph unicode="&#x2dc;" horiz-adv-x="766" d="M184 1964q0 54 39 94t93 40q46 0 74 -17t38 -37t27 -37t43 -17q32 0 47 30t15 56h108q0 -64 -37 -109t-99 -45q-38 0 -65 17t-38 36t-30 36t-41 17q-24 0 -41 -22t-17 -42h-116z" />
<glyph unicode="&#x2000;" horiz-adv-x="1154" />
<glyph unicode="&#x2001;" horiz-adv-x="2308" />
<glyph unicode="&#x2002;" horiz-adv-x="1154" />
<glyph unicode="&#x2003;" horiz-adv-x="2308" />
<glyph unicode="&#x2004;" horiz-adv-x="768" />
<glyph unicode="&#x2005;" horiz-adv-x="576" />
<glyph unicode="&#x2006;" horiz-adv-x="384" />
<glyph unicode="&#x2007;" horiz-adv-x="384" />
<glyph unicode="&#x2008;" horiz-adv-x="288" />
<glyph unicode="&#x2009;" horiz-adv-x="460" />
<glyph unicode="&#x200a;" horiz-adv-x="128" />
<glyph unicode="&#x2010;" horiz-adv-x="544" d="M94 566v124h396v-124h-396z" />
<glyph unicode="&#x2011;" horiz-adv-x="544" d="M94 566v124h396v-124h-396z" />
<glyph unicode="&#x2012;" horiz-adv-x="544" d="M94 566v124h396v-124h-396z" />
<glyph unicode="&#x2013;" horiz-adv-x="1024" d="M94 566v124h876v-124h-876z" />
<glyph unicode="&#x2014;" horiz-adv-x="2048" d="M94 566v124h1900v-124h-1900z" />
<glyph unicode="&#x2018;" horiz-adv-x="304" d="M20 2166h146l114 -172h-94z" />
<glyph unicode="&#x2019;" horiz-adv-x="376" d="M70 1596l122 270h136l-144 -270h-114z" />
<glyph unicode="&#x201c;" horiz-adv-x="534" d="M74 1510l106 322h142l-164 -322h-84zM274 1510l106 322h142l-164 -322h-84z" />
<glyph unicode="&#x201d;" horiz-adv-x="534" d="M74 1510l106 322h142l-164 -322h-84zM274 1510l106 322h142l-164 -322h-84z" />
<glyph unicode="&#x2026;" horiz-adv-x="858" d="M674 -2v104h106v-104h-106zM388 -2v104h106v-104h-106zM102 -2v104h106v-104h-106z" />
<glyph unicode="&#x202f;" horiz-adv-x="460" />
<glyph unicode="&#x2039;" horiz-adv-x="576" d="M30 842v24l506 414v-122l-352 -304l356 -306v-116z" />
<glyph unicode="&#x203a;" horiz-adv-x="588" d="M30 432v116l356 306l-354 304v122l508 -414v-24z" />
<glyph unicode="&#x205f;" horiz-adv-x="576" />
<glyph unicode="&#x2122;" horiz-adv-x="1564" d="M864 0v1858h156l158 -1722l172 1722h154v-1858h-154v1636l-158 -1626h-4h-22h-4l-142 1626v-1636h-156zM36 1848v8h700v-8h-284v-1848h-154v1848h-262z" />
<glyph unicode="&#xe000;" horiz-adv-x="1855" d="M0 1855h1855v-1855h-1855v1855z" />
<glyph unicode="&#xfb01;" horiz-adv-x="1036" d="M762 0v1856h156v-1856h-156zM102 1856h480v-8h-322v-874h322v-6h-322v-968h-156z" />
<glyph unicode="&#xfb02;" horiz-adv-x="1208" d="M762 0v1856h156v-1846h220v-10h-376zM102 1856h480v-8h-322v-874h322v-6h-322v-968h-156z" />
<glyph unicode="&#xfb03;" horiz-adv-x="1696" d="M1422 0v1856h156v-1856h-156zM762 1856h480v-8h-322v-874h322v-6h-322v-968h-156zM102 1856h480v-8h-322v-874h322v-6h-322v-968h-156z" />
<glyph unicode="&#xfb04;" horiz-adv-x="1868" d="M1422 0v1856h156v-1846h220v-10h-376zM762 1856h480v-8h-322v-874h322v-6h-322v-968h-156zM102 1856h480v-8h-322v-874h322v-6h-322v-968h-156z" />
</font>
</defs>
</svg>
