<?xml version="1.0" standalone="no"?>
<!DOCTYPE svg PUBLIC "-//W3C//DTD SVG 1.1//EN" "http://www.w3.org/Graphics/SVG/1.1/DTD/svg11.dtd" >
<svg xmlns="http://www.w3.org/2000/svg">
<metadata>
This is a custom SVG webfont generated by Font Squirrel.
Copyright   : Copyright c 2010 by Bastien Sozoo All rights reserved3
Designer    : BSozoo
Foundry     : BSozoo
</metadata>
<defs>
<font id="CaledoLight" horiz-adv-x="590" >
<font-face units-per-em="2048" ascent="1638" descent="-410" />
<missing-glyph horiz-adv-x="112" />
<glyph unicode=" "  horiz-adv-x="112" />
<glyph unicode="&#x09;" horiz-adv-x="112" />
<glyph unicode="&#xa0;" horiz-adv-x="112" />
<glyph unicode="!" horiz-adv-x="356" d="M132 1856h90l-20 -1602h-52zM148 0v104h54v-104h-54z" />
<glyph unicode="&#x22;" horiz-adv-x="484" d="M112 1510l46 160h74l-64 -160h-56zM252 1510l46 160h74l-62 -160h-58z" />
<glyph unicode="#" horiz-adv-x="544" d="M102 340v42h74l20 68h-94v40h106l28 100h48l-26 -100h60l28 100h46l-26 -100h74v-40h-86l-18 -68h104v-42h-118l-26 -88h-46l26 88h-62l-26 -88h-48l26 88h-64zM226 382h60l18 68h-60z" />
<glyph unicode="$" horiz-adv-x="576" d="M98 74v20l60 -28q38 -18 74 -18q88 0 130 126q44 138 48 406q0 238 -140 440l-86 128q-82 118 -82 346v40q2 180 40 264q40 82 142 84v154h56v-160q88 -24 116 -126q18 -82 18 -182v-26l-2 -148h-52v132q0 292 -88 338q-52 28 -96 0q-18 -12 -34 -34q-12 -20 -22 -48 q-16 -46 -18 -164v-144q0 -158 42 -244q44 -86 126 -204q84 -118 120 -254q28 -116 28 -248v-60q-14 -318 -110 -398l-28 -18v-138h-56v114q-10 -2 -28 -2q-50 0 -104 26z" />
<glyph unicode="%" horiz-adv-x="938" d="M44 0l740 1726h92l-744 -1726h-88zM134 1325q0 81 56 141q58 58 142 58q82 0 140 -58t58 -140t-58 -140q-56 -58 -140 -58t-140 58q-58 58 -58 139zM210 1329q0 -51 38 -87t90 -36t86 36q36 36 36 87t-36 89q-34 38 -86 38t-90 -38t-38 -89zM502 428q0 82 56 140 q58 58 138 58t138 -58q60 -58 60 -140t-60 -140q-58 -58 -138 -58t-138 58q-56 58 -56 140zM574 430q0 -50 36 -88q36 -36 88 -36t90 36q38 38 38 88t-38 88t-90 38t-88 -38t-36 -88z" />
<glyph unicode="&#x26;" horiz-adv-x="886" d="M52 228v284v284q0 64 41 118t111 82q-152 50 -152 212v220v220q0 96 84 158q84 66 202 66q126 0 207 -58t81 -158q0 -4 2 -10q4 -8 -8 -14h-74q0 84 -59 140t-151 56q-88 0 -147 -60t-59 -144v-218v-220q0 -86 100 -124q34 -12 150 -42l90 -20q72 -20 114 -72t42 -124 v-120v-258v-184q0 -90 59 -150t149 -60v-42q-146 0 -242 116l-8 -10q-62 -98 -246 -98q-132 0 -209 58t-77 172zM130 206q0 -186 208 -186q206 0 208 224v190v240v106q0 86 -57 142t-151 56q-90 0 -149 -60t-59 -144v-286v-282z" />
<glyph unicode="'" horiz-adv-x="376" d="M128 1510l46 160h74l-64 -160h-56z" />
<glyph unicode="(" horiz-adv-x="516" d="M106 884q0 698 74 898q38 110 88 144q46 32 134 32q6 0 6 -8q0 -22 -16 -22q-120 0 -162 -208q-38 -176 -38 -820q0 -388 2 -454q22 -484 154 -484q12 -26 0 -26q-96 0 -144 62q-44 60 -72 264q-26 200 -26 622z" />
<glyph unicode=")" horiz-adv-x="516" d="M106 1950q-2 8 6 8q88 0 134 -32q48 -32 88 -144q74 -198 76 -898q-4 -432 -28 -622q-28 -206 -74 -264q-44 -62 -142 -62q-14 0 0 26q132 0 150 484q6 98 6 454q0 636 -40 820q-46 208 -160 208q-16 0 -16 22z" />
<glyph unicode="*" horiz-adv-x="548" d="M102 1250l18 44h90l34 108h48l40 -108h98l14 -44h-92l46 -124h-50l-74 124h-4l-64 -124h-50l42 124h-96z" />
<glyph unicode="+" horiz-adv-x="616" d="M94 650v66h182v182h64v-182h182v-66h-182v-184h-64v184h-182z" />
<glyph unicode="," horiz-adv-x="366" d="M130 -104l48 106h58l-46 -106h-60z" />
<glyph unicode="-" horiz-adv-x="616" d="M94 608v64h428v-64h-428z" />
<glyph unicode="." horiz-adv-x="326" d="M136 0v104h54v-104h-54z" />
<glyph unicode="/" horiz-adv-x="754" d="M72 0l530 1902h80l-536 -1902h-74z" />
<glyph unicode="0" horiz-adv-x="632" d="M82 234v714v714q0 94 67 158t167 64q104 0 169 -57t65 -157v-720v-716q0 -112 -64 -171t-170 -59q-108 0 -171 58t-63 172zM146 212q0 -188 168 -188q170 0 170 188v714v718q0 88 -49 151t-121 63t-120 -70q-48 -68 -48 -150v-712v-714z" />
<glyph unicode="1" horiz-adv-x="492" d="M102 1582l218 276h70v-1858h-64v1764l-156 -182h-68z" />
<glyph unicode="2" horiz-adv-x="678" d="M74 0q10 0 116 268q106 264 218 674q110 402 110 686q0 84 -47 139t-121 55q-72 0 -121 -59t-49 -141v-8v-12v-20h-64v26v24v14q0 92 68 156t166 64q104 0 169 -57t65 -161q0 -192 -42 -420q-36 -212 -98 -420q-50 -162 -114 -343t-103 -282t-39 -103h414v-80h-4h-2h-8 h-4h-4h-2h-6h-4h-6h-2h-6h-4h-6h-2h-8h-2h-6h-8h-2h-4h-6h-4h-8h-4h-4h-6h-4h-8h-2h-6h-4h-6h-8h-2h-8h-2h-8h-2h-8h-4h-6h-6h-6h-4h-8h-6h-4h-6h-6h-6h-6h-6h-8h-2h-8h-4h-6h-8h-4h-6h-8h-6h-4h-6h-8h-8h-2h-8h-8h-8h-2h-8h-8h-4h-6h-8h-4h-8h-8h-2h-8h-8h-8h-6h-8h-8h-2 h-8h-8h-30z" />
<glyph unicode="3" horiz-adv-x="642" d="M80 224v240h60v-262q0 -182 168 -182q170 0 170 182v28v80v120v170v210q0 188 -170 188v22q170 0 170 186v170v122v78v48v12q0 92 -49 156t-121 64q-64 0 -103 -67t-39 -161v-36h-66v34v24q0 104 56 166t152 62q116 0 185 -57t69 -161v-418q0 -172 -170 -238 q170 -48 170 -244v-264v-164v-108q0 -106 -71 -168t-183 -62q-230 0 -228 230z" />
<glyph unicode="4" horiz-adv-x="686" d="M72 556v32q36 0 61 42t55 146q24 84 66 260l90 422l86 400h74q-36 -134 -98 -418l-100 -436l-52 -228q-48 -192 -94 -188h340v994h68v-994h44v-32h-44v-556h-68v556h-428z" />
<glyph unicode="5" horiz-adv-x="640" d="M80 226v242h56v-262q0 -188 168 -188q170 0 170 188v26v80v122v170v206q0 186 -168 186l-184 6h-34v870h74h134q92 0 152 -63t60 -163v-22v-26h-64v26q0 92 -40 157t-106 65h-158v-824h166q52 0 82 -12q170 -50 170 -244v-266v-166v-108q0 -106 -72 -168t-180 -62 q-226 0 -226 230z" />
<glyph unicode="6" horiz-adv-x="632" d="M82 236v852v284v292q0 94 67 157t167 63q104 0 169 -57t65 -161v-64h-66v44q0 84 -47 139t-121 55q-72 0 -121 -59t-49 -141v-36v-84v-116v-140v-144v-62q76 70 170 70q102 0 168 -58t66 -158v-338v-338q0 -112 -64 -174t-170 -62q-108 0 -171 59t-63 177zM146 208 q0 -182 168 -182q170 0 170 182v340v340q0 84 -47 140t-121 56q-72 0 -121 -62t-49 -142v-338v-334z" />
<glyph unicode="7" horiz-adv-x="642" d="M80 1582v30v22q0 100 57 162t153 62h206h64l-348 -1858h-78l356 1816h-202q-70 0 -107 -57t-37 -145v-32h-64z" />
<glyph unicode="8" horiz-adv-x="632" d="M82 226v290v280q0 136 124 200q-124 52 -124 214v220v220q0 94 66 156q68 66 168 66q104 0 169 -57t65 -155v-226v-224q0 -158 -122 -208q122 -54 122 -196v-288v-292q0 -108 -64 -169t-170 -61t-170 59t-64 171zM146 206q0 -182 168 -182q170 0 170 182v286v292 q0 84 -47 139t-121 55q-72 0 -121 -61t-49 -141v-286v-284zM146 1188q0 -186 168 -186q170 0 170 186v222v224q0 88 -47 144t-121 56q-72 0 -121 -62t-49 -144v-220v-220z" />
<glyph unicode="9" horiz-adv-x="632" d="M82 214q0 -104 64 -161t170 -57q94 0 164 64q70 66 70 160v386v386v654q0 116 -63 175t-171 59q-106 0 -170 -61t-64 -173v-238v-238q0 -104 64 -161t170 -57q92 0 168 70v-62v-164v-190v-174v-134v-52q0 -86 -50 -156q-48 -72 -120 -72t-120 65t-48 155v44h-64v-68z M146 1192v238v242q-8 110 80 158t176 2t82 -160v-236v-240q0 -80 -48 -144t-120 -64q-76 0 -123 57t-47 147z" />
<glyph unicode=":" horiz-adv-x="326" d="M136 0v104h54v-104h-54zM136 208v104h54v-104h-54z" />
<glyph unicode=";" horiz-adv-x="366" d="M130 -104l48 106h58l-46 -106h-60zM178 30v104h58v-104h-58z" />
<glyph unicode="&#x3c;" horiz-adv-x="462" d="M116 374v48l230 170v-28v-52l-126 -118l126 -112v-42v-30z" />
<glyph unicode="=" horiz-adv-x="452" d="M116 320v42h218v-42h-218zM116 428v42h218v-42h-218z" />
<glyph unicode="&#x3e;" horiz-adv-x="462" d="M116 210v30v42l126 112l-126 118v52v28l230 -170v-48z" />
<glyph unicode="?" horiz-adv-x="740" d="M74 1400v240q0 228 280 228q136 0 223 -60t87 -170v-108q0 -14 1 -162t1 -266q0 -96 -57 -160t-153 -84q-24 -6 -102 -10h-12l2 -636h-72v656h48l34 2q104 0 169 49t65 139v206v168v122v80v26q0 90 -64 138t-170 48q-208 0 -208 -186v-260h-72zM276 0v104h58v-104h-58z " />
<glyph unicode="@" horiz-adv-x="736" d="M74 230v422v420q0 100 81 157t211 57q136 0 216 -52t80 -156v-46v-118v-146v-152v-126q0 -120 -104 -120q-58 0 -76 48q-40 -40 -122 -42q-154 0 -154 130v114v118q0 48 46 85t108 37q70 0 113 -32t43 -88v-124v-126q0 -64 9 -88t33 -24q46 0 46 112v226v244v102 q0 98 -67 154t-171 56q-96 0 -164 -62t-68 -150v-424v-422q0 -196 232 -196q110 0 173 54t63 160h60q0 -126 -75 -178t-221 -52q-148 0 -221 57t-71 171zM248 490q0 -102 112 -102t112 102v76v108v52q0 48 -30 79t-82 31q-46 0 -79 -34t-33 -78v-116v-118z" />
<glyph unicode="A" horiz-adv-x="604" d="M44 0l220 1858h68l228 -1858h-66l-52 438h-284l-50 -438h-64zM158 450h284l-144 1230z" />
<glyph unicode="B" horiz-adv-x="578" d="M102 0v1856h78h36q98 0 134 -12q8 -2 16 -5t14 -9l10 -10q4 -4 10 -14t9 -14t9 -17t8 -17q24 -44 29 -126t5 -268q0 -322 -76 -398q64 -30 76 -112q14 -76 14 -350q0 -276 -21 -390t-87 -114h-264zM166 10h136q62 0 82 96q22 104 22 396q-2 26 -2 98v92q-6 186 -24 224 q-20 48 -84 50h-130v-956zM166 974h128q30 0 49 23t36 126t17 289q0 268 -24 352t-128 84h-78v-874z" />
<glyph unicode="C" horiz-adv-x="686" d="M86 868q0 638 74 824q40 98 87 131t135 33h15q93 0 138 -71q49 -77 59 -219q4 -80 4 -144v-68h-66v46q0 216 -44 332t-116 116q-138 0 -174 -276q-24 -174 -24 -688q0 -20 -4 -132q-2 -56 -2 -140q0 -140 10 -256q16 -176 26 -210q44 -136 124 -136q76 0 116 33t63 133 t25 296h66v-44q0 -230 -56 -338q-22 -44 -64 -64q-10 -6 -20 -10t-17 -7t-17 -5l-15 -3q-5 -1 -18 -1h-18h-21h-24q-96 0 -144 56q-46 58 -72 242q-26 182 -26 570z" />
<glyph unicode="D" horiz-adv-x="608" d="M100 0v1856h148q56 0 86 -8q60 -12 84 -54q30 -40 56 -154q20 -80 30 -292q4 -120 4 -412l-18 -490q-22 -334 -66 -390t-168 -56h-156zM164 10h86q62 0 91 25t53 111q26 94 36 282q10 210 10 652q0 458 -52 626q-28 88 -61 115t-101 27h-62v-1838z" />
<glyph unicode="E" d="M102 0v1856h386v-8h-322v-870h322v-12h-322v-956h322v-10h-386z" />
<glyph unicode="F" d="M102 1856h386v-8h-322v-874h322v-8h-322v-966h-62z" />
<glyph unicode="G" horiz-adv-x="706" d="M84 868q2 640 72 826q40 98 84 130t126 32q138 0 186 -124q44 -112 44 -330v-48h-66v46q0 214 -45 331t-119 117q-132 0 -170 -272q-24 -172 -24 -692q0 -522 26 -664q34 -210 146 -210q80 0 114 30q96 84 96 432v494h-162v8h230v-502v-44q-2 -222 -43 -310t-141 -110 q-26 -8 -94 -8q-96 0 -152 56q-54 54 -82 242q-22 180 -26 570z" />
<glyph unicode="H" horiz-adv-x="620" d="M96 0v1858h64v-884h292v884h70v-1858h-68l-2 966h-292v-966h-64z" />
<glyph unicode="I" horiz-adv-x="342" d="M138 0v1856h64v-1856h-64z" />
<glyph unicode="J" horiz-adv-x="424" d="M126 0v8q78 0 94 48q14 42 14 144v18q-2 76 -2 132v1506h66v-1550q0 -170 -22 -238t-86 -68h-64z" />
<glyph unicode="K" horiz-adv-x="604" d="M98 0v1856h64v-796l264 796h66l-290 -882l302 -974h-66l-276 904v-904h-64z" />
<glyph unicode="L" horiz-adv-x="514" d="M112 0v1856h64v-1846h224v-10h-288z" />
<glyph unicode="M" horiz-adv-x="648" d="M92 0v1858h64l160 -1724l170 1722h68v-1856h-68v1634l-156 -1624h-2h-24h-2l-146 1624v-1634h-64z" />
<glyph unicode="N" horiz-adv-x="584" d="M102 0v1858h64l250 -1082v1080h66v-1856h-66v598l-250 1068v-1666h-64z" />
<glyph unicode="O" horiz-adv-x="684" d="M86 884q0 482 54 714q24 104 60 164q36 58 71 78t85 20t82 -17t64 -73q64 -104 86 -440q10 -170 10 -350v-88v-102q0 -92 -4 -224q-16 -372 -86 -496q-34 -50 -70 -64t-98 -14q-36 0 -57 4t-48 20t-48 54t-43 98q-58 190 -58 716zM150 930q0 -430 38 -662 q18 -100 44 -160q42 -100 110 -100q78 0 114 60q34 62 56 260q20 192 20 610q-2 642 -72 808q-42 104 -104 104q-92 0 -150 -252q-56 -248 -56 -668z" />
<glyph unicode="P" horiz-adv-x="534" d="M110 0v1856h150q40 0 68 -15t37 -27t21 -36q20 -40 30 -114q8 -50 8 -152v-130q0 -334 -60 -392q-24 -24 -70 -24h-120v-966h-64zM174 974h76q60 0 80 62q26 66 28 152q6 90 6 134v40v164l-4 96q-6 156 -66 206q-20 16 -50 20h-70v-874z" />
<glyph unicode="Q" horiz-adv-x="684" d="M86 916q4 424 44 650q32 186 90 256q56 68 136 68q50 0 82 -17t64 -73q64 -104 86 -440q10 -166 10 -348v-90v-60q0 -350 -28 -550q-12 -82 -50 -184v-92v-38l4 -34q6 -34 46 -34v-18q-56 0 -78 34t-24 108q-44 -30 -126 -30q-38 0 -59 4t-48 20t-48 53t-43 99 q-58 190 -58 716zM150 962q2 -392 34 -650q6 74 52 129t110 55q66 0 116 -65t56 -153q12 278 12 460q0 100 2 234q0 88 -10 382q-2 138 -24 264q-38 260 -142 260q-92 0 -150 -252q-56 -244 -56 -664zM224 166q22 -72 48 -101t70 -29q54 0 76 17t48 69v66q0 30 -4 74 q-22 216 -120 216q-36 0 -64 -32t-40 -82q-14 -62 -14 -130v-62v-6z" />
<glyph unicode="R" horiz-adv-x="552" d="M106 0v1856h150q52 0 87 -26t51 -79t21 -107t5 -132v-74v-56q-4 -198 -16 -281t-34 -107t-80 -28h-52h-12l218 -966h-66l-208 938v-938h-64zM170 974h76q58 0 88 68q16 38 20 100q6 32 6 122v62v56v50q0 60 -1 96t-4 92t-11 90t-21 69t-35 52t-52 17h-66v-874z" />
<glyph unicode="S" horiz-adv-x="580" d="M98 48v20l62 -28q40 -18 74 -18q86 0 132 126q44 134 44 406q0 238 -138 440l-86 128q-80 116 -80 346v40q4 186 38 264q38 86 146 86q136 -6 166 -134q22 -84 22 -184v-24l-4 -148h-52v132q0 292 -88 338q-20 12 -48 12t-48 -12q-18 -6 -34 -32q-6 -8 -24 -50 q-14 -42 -14 -164v-144q0 -156 42 -244t126 -204q86 -120 118 -254q28 -116 28 -248v-60q-14 -318 -110 -398q-50 -44 -116 -44q-50 0 -100 26z" />
<glyph unicode="T" horiz-adv-x="586" d="M46 1848v8h494v-8h-214v-1848h-68v1848h-212z" />
<glyph unicode="U" horiz-adv-x="732" d="M78 216v820v822h78v-832v-832q0 -186 208 -186t208 186v832v832h80v-820v-822q0 -110 -78 -165t-210 -55q-286 0 -286 220z" />
<glyph unicode="V" horiz-adv-x="614" d="M42 1856h8h66l196 -1680l184 1680h68h6l-224 -1856h-68z" />
<glyph unicode="W" horiz-adv-x="648" d="M92 0v1858h64v-1634l146 742h2h24h2l156 -742v1634h68v-1858h-68l-170 902l-160 -902h-64z" />
<glyph unicode="X" horiz-adv-x="556" d="M52 0l190 922l-190 934h10h68l148 -882l154 882h64h8l-184 -930l184 -926h-8h-64l-154 874l-148 -874h-68h-10z" />
<glyph unicode="Y" horiz-adv-x="556" d="M52 1856l10 2h68l148 -892l154 892h64h8l-190 -954v-904h-68v902z" />
<glyph unicode="Z" horiz-adv-x="642" d="M94 0l380 1848h-342v8h342h74l-10 -46l-374 -1800h374v-10h-432h-12z" />
<glyph unicode="[" horiz-adv-x="506" d="M108 -82v1026v1110l288 4v-30h-224v-1028v-1054l224 -2v-26h-288z" />
<glyph unicode="\" horiz-adv-x="754" d="M72 1902h78l532 -1902h-78z" />
<glyph unicode="]" horiz-adv-x="504" d="M108 -56l220 2v1054v1028h-220v30l286 -4v-1110v-1026h-286v26z" />
<glyph unicode="^" horiz-adv-x="576" d="M98 1510l126 166h120l134 -166h-30h-52l-116 126l-112 -126h-42h-28z" />
<glyph unicode="_" horiz-adv-x="746" d="M72 0v30h600v-30h-600z" />
<glyph unicode="`" horiz-adv-x="440" d="M120 1682h94l106 -172h-68z" />
<glyph unicode="a" horiz-adv-x="604" d="M44 0l220 1858h68l228 -1858h-66l-52 438h-284l-50 -438h-64zM158 450h284l-144 1230z" />
<glyph unicode="b" horiz-adv-x="578" d="M102 0v1856h78h36q98 0 134 -12q8 -2 16 -5t14 -9l10 -10q4 -4 10 -14t9 -14t9 -17t8 -17q24 -44 29 -126t5 -268q0 -322 -76 -398q64 -30 76 -112q14 -76 14 -350q0 -276 -21 -390t-87 -114h-264zM166 10h136q62 0 82 96q22 104 22 396q-2 26 -2 98v92q-6 186 -24 224 q-20 48 -84 50h-130v-956zM166 974h128q30 0 49 23t36 126t17 289q0 268 -24 352t-128 84h-78v-874z" />
<glyph unicode="c" horiz-adv-x="686" d="M86 868q0 638 74 824q40 98 87 131t135 33h15q93 0 138 -71q49 -77 59 -219q4 -80 4 -144v-68h-66v46q0 216 -44 332t-116 116q-138 0 -174 -276q-24 -174 -24 -688q0 -20 -4 -132q-2 -56 -2 -140q0 -140 10 -256q16 -176 26 -210q44 -136 124 -136q76 0 116 33t63 133 t25 296h66v-44q0 -230 -56 -338q-22 -44 -64 -64q-10 -6 -20 -10t-17 -7t-17 -5l-15 -3q-5 -1 -18 -1h-18h-21h-24q-96 0 -144 56q-46 58 -72 242q-26 182 -26 570z" />
<glyph unicode="d" horiz-adv-x="608" d="M100 0v1856h148q56 0 86 -8q60 -12 84 -54q30 -40 56 -154q20 -80 30 -292q4 -120 4 -412l-18 -490q-22 -334 -66 -390t-168 -56h-156zM164 10h86q62 0 91 25t53 111q26 94 36 282q10 210 10 652q0 458 -52 626q-28 88 -61 115t-101 27h-62v-1838z" />
<glyph unicode="e" d="M102 0v1856h386v-8h-322v-870h322v-12h-322v-956h322v-10h-386z" />
<glyph unicode="f" d="M102 1856h386v-8h-322v-874h322v-8h-322v-966h-62z" />
<glyph unicode="g" horiz-adv-x="706" d="M84 868q2 640 72 826q40 98 84 130t126 32q138 0 186 -124q44 -112 44 -330v-48h-66v46q0 214 -45 331t-119 117q-132 0 -170 -272q-24 -172 -24 -692q0 -522 26 -664q34 -210 146 -210q80 0 114 30q96 84 96 432v494h-162v8h230v-502v-44q-2 -222 -43 -310t-141 -110 q-26 -8 -94 -8q-96 0 -152 56q-54 54 -82 242q-22 180 -26 570z" />
<glyph unicode="h" horiz-adv-x="620" d="M96 0v1858h64v-884h292v884h70v-1858h-68l-2 966h-292v-966h-64z" />
<glyph unicode="i" horiz-adv-x="342" d="M138 0v1856h64v-1856h-64z" />
<glyph unicode="j" horiz-adv-x="424" d="M126 0v8q78 0 94 48q14 42 14 144v18q-2 76 -2 132v1506h66v-1550q0 -170 -22 -238t-86 -68h-64z" />
<glyph unicode="k" horiz-adv-x="604" d="M98 0v1856h64v-796l264 796h66l-290 -882l302 -974h-66l-276 904v-904h-64z" />
<glyph unicode="l" horiz-adv-x="514" d="M112 0v1856h64v-1846h224v-10h-288z" />
<glyph unicode="m" horiz-adv-x="648" d="M92 0v1858h64l160 -1724l170 1722h68v-1856h-68v1634l-156 -1624h-2h-24h-2l-146 1624v-1634h-64z" />
<glyph unicode="n" horiz-adv-x="584" d="M102 0v1858h64l250 -1082v1080h66v-1856h-66v598l-250 1068v-1666h-64z" />
<glyph unicode="o" horiz-adv-x="684" d="M86 884q0 482 54 714q24 104 60 164q36 58 71 78t85 20t82 -17t64 -73q64 -104 86 -440q10 -170 10 -350v-88v-102q0 -92 -4 -224q-16 -372 -86 -496q-34 -50 -70 -64t-98 -14q-36 0 -57 4t-48 20t-48 54t-43 98q-58 190 -58 716zM150 930q0 -430 38 -662 q18 -100 44 -160q42 -100 110 -100q78 0 114 60q34 62 56 260q20 192 20 610q-2 642 -72 808q-42 104 -104 104q-92 0 -150 -252q-56 -248 -56 -668z" />
<glyph unicode="p" horiz-adv-x="534" d="M110 0v1856h150q40 0 68 -15t37 -27t21 -36q20 -40 30 -114q8 -50 8 -152v-130q0 -334 -60 -392q-24 -24 -70 -24h-120v-966h-64zM174 974h76q60 0 80 62q26 66 28 152q6 90 6 134v40v164l-4 96q-6 156 -66 206q-20 16 -50 20h-70v-874z" />
<glyph unicode="q" horiz-adv-x="684" d="M86 916q4 424 44 650q32 186 90 256q56 68 136 68q50 0 82 -17t64 -73q64 -104 86 -440q10 -166 10 -348v-90v-60q0 -350 -28 -550q-12 -82 -50 -184v-92v-38l4 -34q6 -34 46 -34v-18q-56 0 -78 34t-24 108q-44 -30 -126 -30q-38 0 -59 4t-48 20t-48 53t-43 99 q-58 190 -58 716zM150 962q2 -392 34 -650q6 74 52 129t110 55q66 0 116 -65t56 -153q12 278 12 460q0 100 2 234q0 88 -10 382q-2 138 -24 264q-38 260 -142 260q-92 0 -150 -252q-56 -244 -56 -664zM224 166q22 -72 48 -101t70 -29q54 0 76 17t48 69v66q0 30 -4 74 q-22 216 -120 216q-36 0 -64 -32t-40 -82q-14 -62 -14 -130v-62v-6z" />
<glyph unicode="r" horiz-adv-x="552" d="M106 0v1856h150q52 0 87 -26t51 -79t21 -107t5 -132v-74v-56q-4 -198 -16 -281t-34 -107t-80 -28h-52h-12l218 -966h-66l-208 938v-938h-64zM170 974h76q58 0 88 68q16 38 20 100q6 32 6 122v62v56v50q0 60 -1 96t-4 92t-11 90t-21 69t-35 52t-52 17h-66v-874z" />
<glyph unicode="s" horiz-adv-x="580" d="M98 48v20l62 -28q40 -18 74 -18q86 0 132 126q44 134 44 406q0 238 -138 440l-86 128q-80 116 -80 346v40q4 186 38 264q38 86 146 86q136 -6 166 -134q22 -84 22 -184v-24l-4 -148h-52v132q0 292 -88 338q-20 12 -48 12t-48 -12q-18 -6 -34 -32q-6 -8 -24 -50 q-14 -42 -14 -164v-144q0 -156 42 -244t126 -204q86 -120 118 -254q28 -116 28 -248v-60q-14 -318 -110 -398q-50 -44 -116 -44q-50 0 -100 26z" />
<glyph unicode="t" horiz-adv-x="586" d="M46 1848v8h494v-8h-214v-1848h-68v1848h-212z" />
<glyph unicode="u" horiz-adv-x="732" d="M78 216v820v822h78v-832v-832q0 -186 208 -186t208 186v832v832h80v-820v-822q0 -110 -78 -165t-210 -55q-286 0 -286 220z" />
<glyph unicode="v" horiz-adv-x="614" d="M42 1856h8h66l196 -1680l184 1680h68h6l-224 -1856h-68z" />
<glyph unicode="w" horiz-adv-x="648" d="M92 0v1858h64v-1634l146 742h2h24h2l156 -742v1634h68v-1858h-68l-170 902l-160 -902h-64z" />
<glyph unicode="x" horiz-adv-x="556" d="M52 0l190 922l-190 934h10h68l148 -882l154 882h64h8l-184 -930l184 -926h-8h-64l-154 874l-148 -874h-68h-10z" />
<glyph unicode="y" horiz-adv-x="556" d="M52 1856l10 2h68l148 -892l154 892h64h8l-190 -954v-904h-68v902z" />
<glyph unicode="z" horiz-adv-x="642" d="M94 0l380 1848h-342v8h342h74l-10 -46l-374 -1800h374v-10h-432h-12z" />
<glyph unicode="{" horiz-adv-x="622" d="M92 916l16 4q118 28 118 76q0 722 108 872q40 54 81 72t111 18q4 0 4 -8q-4 -22 -18 -22q-126 14 -170 -248q-12 -68 -18 -188q-4 -72 -8 -222v-274q0 -36 -28 -58t-66 -22q36 0 65 -31t29 -63q0 -232 4 -388q16 -472 148 -472q14 -26 0 -26q-94 0 -142 58 q-48 56 -74 250q-26 188 -26 578q0 52 -118 86h-6z" />
<glyph unicode="|" horiz-adv-x="344" d="M132 0v1858h78v-1858h-78z" />
<glyph unicode="}" horiz-adv-x="622" d="M92 1950q0 8 4 8q70 0 109 -18t79 -72q60 -78 85 -281t25 -591q0 -48 118 -76l18 -4l-12 -8h-6q-118 -34 -118 -86q0 -390 -26 -578q-28 -196 -76 -250q-48 -58 -140 -58q-14 0 0 26q132 0 148 472q6 254 8 388q0 32 28 63t62 31q-38 0 -64 22t-26 58q0 204 -2 274 q-4 146 -10 222q-6 126 -20 188q-42 262 -168 248q-16 0 -16 22z" />
<glyph unicode="~" horiz-adv-x="594" d="M122 1528q0 120 80 120q34 0 86 -18q58 -16 68 -16q20 -2 29 12t9 44h76q0 -130 -102 -130q-24 0 -64 22q-38 22 -58 22h-4q-50 0 -50 -56h-70z" />
<glyph unicode="&#xa1;" horiz-adv-x="356" d="M132 6l18 1598h52l20 -1598h-90zM148 1758v104h54v-104h-54z" />
<glyph unicode="&#xa2;" horiz-adv-x="678" d="M82 906q-4 468 38 683t126 273q38 26 92 28v156h56v-152q60 -2 100 -34q82 -56 96 -256q4 -80 4 -144v-68h-66v46q0 218 -46 332q-36 92 -88 110v-2h-56v2q-110 -28 -144 -270q-22 -166 -26 -690q0 -74 -2 -132q-2 -56 -2 -138q0 -168 8 -256q16 -166 28 -210 q42 -136 124 -136q76 0 116 33t63 133t25 296h66v-44q0 -230 -56 -338q-18 -38 -59 -62t-75 -26h-10v-164h-56v160h-14q-96 0 -144 56q-46 58 -72 242q-26 182 -26 572z" />
<glyph unicode="&#xa3;" horiz-adv-x="922" d="M46 0q0 2 10 24t32 75t44 119q42 122 76 282q40 172 66 472q4 40 8 124h-120v24h122q16 260 16 528q0 100 80 158t206 58q116 0 202 -64q86 -62 86 -160v-10v-26v-24h-80v16v16v8q0 80 -60 148q-60 70 -148 70t-147 -63t-59 -151q0 -286 -14 -504h200v-24h-200 q-8 -98 -14 -152q-28 -304 -66 -472q-66 -296 -136 -430l-10 -16h456q82 0 130 65t48 155v30h80v-26v-24q0 -98 -72 -161t-188 -63h-164l-306 -2h-4h-2h-2h-2h-4h-2h-2h-4h-4h-6h-2h-6h-2h-6h-2h-6h-22z" />
<glyph unicode="&#xa4;" horiz-adv-x="516" d="M106 606l68 94q-32 32 -32 77t32 79l-68 84h8h40l46 -64q24 14 54 16q28 0 56 -16l48 64h44h6l-66 -88q28 -30 28 -75t-30 -77l68 -94h-6h-44l-50 70q-22 -14 -54 -14q-30 0 -50 12l-50 -68h-40h-8zM196 764q12 -34 43 -43t59 15q30 26 18 59t-44 41t-60 -14 q-28 -24 -16 -58z" />
<glyph unicode="&#xa5;" horiz-adv-x="632" d="M90 1856l10 2h64l152 -818l150 818h68h8l-180 -892h126v-40h-134l-4 -22v-38h138v-42h-138v-824h-68v824h-136v42h136v36l-6 24h-130v40h122z" />
<glyph unicode="&#xa6;" horiz-adv-x="344" d="M132 0v842h78v-842h-78zM132 1016v842h78v-842h-78z" />
<glyph unicode="&#xa7;" horiz-adv-x="752" d="M72 -60h142q164 0 164 506q0 302 -138 440l-64 98q-36 68 -36 404q0 202 32 283t116 81q64 0 96 -36q10 62 22 88q34 82 116 84q92 0 122 -71t30 -239v-218h-66v46l2 124q0 142 -13 216t-29 92t-46 18q-48 0 -65 -83t-17 -295v-28v-4v-6q0 -68 4 -144q4 -60 20 -130 q18 -74 58 -114q84 -78 121 -200t37 -314q0 -220 -56 -364q-54 -144 -172 -144l-56 30q-16 -46 -46 -92q-50 -72 -128 -72h-4h-104h-42v44zM206 1316q0 -116 2 -154q2 -48 22 -132q18 -76 58 -116q158 -152 158 -514q0 -146 -20 -248q-10 -48 -22 -74h44q164 0 164 506 q0 300 -138 438q-46 68 -60 98q-12 28 -28 124q-6 42 -10 146l-2 4q0 138 -12 214q-12 72 -27 91t-47 19q-48 0 -65 -81t-17 -293v-28z" />
<glyph unicode="&#xa8;" horiz-adv-x="478" d="M112 1589q8 25 29 32t41 -11q18 -20 10 -44t-28 -29t-40 11t-12 41zM278 1588q8 24 30 31t44 -9q18 -20 10 -44t-29 -29t-43 11q-20 16 -12 40z" />
<glyph unicode="&#xa9;" horiz-adv-x="728" d="M74 1084q0 188 62 282q46 76 148 96q34 8 120 8q80 0 140 -36q106 -64 106 -310v-36q2 -14 2 -38q0 -106 -24 -182q-36 -108 -134 -126q-60 -12 -124 -12q-66 0 -140 16q-44 6 -88 56q-68 74 -68 282zM148 1106q0 -170 42 -264q32 -78 106 -98q28 -6 90 -6q70 0 108 26 t60 102q22 84 22 244q0 166 -42 260q-38 96 -150 96q-108 0 -172 -100t-64 -260zM280 1016q0 -142 30 -178q16 -16 34 -16h2q16 2 32 2q56 2 56 126v14h-20q0 -110 -26 -130q-42 -26 -70 22q-14 22 -14 150l4 80q0 170 10 230t50 60q46 0 46 -134v-14h20q0 70 -10 110 q-12 26 -39 36t-55 -8q-32 -18 -44 -126q-6 -76 -6 -224z" />
<glyph unicode="&#xaa;" horiz-adv-x="442" d="M120 1178v48v56q-4 30 32 44t72 2t34 -46v-56v-54q0 -30 3 -38t15 -8q16 2 20 48h26q0 -54 -46 -54q-26 0 -32 16q-20 -18 -56 -18q-68 0 -68 60zM138 1172q0 -46 48 -46h2q52 4 52 46v32v48v24q0 30 -26 41t-51 -1t-25 -40v-54v-50z" />
<glyph unicode="&#xab;" horiz-adv-x="584" d="M96 762v120l166 128v-32v-42l-128 -110l128 -120v-48v-30zM320 762v120l166 128v-32v-42l-128 -110l124 -120v-48v-30z" />
<glyph unicode="&#xac;" d="M96 630v38h342h52h4v-238h-56v200h-342z" />
<glyph unicode="&#xad;" horiz-adv-x="516" d="M106 584v38h302v-38h-302z" />
<glyph unicode="&#xae;" horiz-adv-x="728" d="M74 1084q0 188 62 282q46 76 148 96q34 8 120 8q80 0 140 -36q106 -64 106 -310v-36q2 -14 2 -38q0 -106 -24 -182q-36 -108 -134 -126q-60 -12 -124 -12q-66 0 -140 16q-44 6 -88 56q-68 74 -68 282zM148 1106q0 -170 42 -264q32 -78 106 -98q28 -6 90 -6q70 0 108 26 t60 102q22 84 22 244q0 166 -42 260q-38 96 -150 96q-108 0 -172 -100t-64 -260zM318 828h20v284l64 -284h18l-66 292h22q14 0 24 10q12 12 12 114v40q0 100 -48 104h-46v-560zM338 1122v262h18q20 -2 32 -30q8 -16 8 -126v-20q-2 -86 -36 -86h-22z" />
<glyph unicode="&#xaf;" horiz-adv-x="516" d="M106 1560v42h302v-42h-302z" />
<glyph unicode="&#xb0;" horiz-adv-x="360" d="M100 1544q0 36 22 62q24 26 57 26t55 -26q24 -26 24 -62t-24 -62q-22 -26 -55 -26t-57 26q-22 26 -22 62zM137 1536q7 -26 28 -33t43 9q32 32 0 68q-32 30 -60 0q-18 -18 -11 -44z" />
<glyph unicode="&#xb1;" horiz-adv-x="616" d="M94 376v64h428v-64h-428zM94 678v64h182v182h64v-182h182v-64h-182v-186h-64v186h-182z" />
<glyph unicode="&#xb2;" horiz-adv-x="582" d="M212 808l34 82q32 78 66 202q34 126 34 204q0 26 -14 43t-38 17q-20 0 -34 -18t-14 -42v-2v-6v-4h-22v8v6v4q0 28 21 48t49 20q70 0 70 -66q0 -122 -40 -252l-36 -106l-20 -56q-10 -28 -16 -42l-6 -14h124v-26h-2h-4h-2h-2h-2h-4h-4h-4h-2h-2h-6h-2h-2h-4h-2h-2h-6h-2h-4 h-2h-2h-2h-4h-2h-2h-4h-2h-2h-4h-2h-2h-2h-4h-2h-2h-4h-2h-2h-4h-2h-2h-2h-4h-2h-6h-2h-2h-4h-2h-4h-6h-10z" />
<glyph unicode="&#xb3;" horiz-adv-x="554" d="M204 872v72h18v-78q0 -54 50 -56q52 0 52 56v8v24v36v50v64q2 56 -50 56v6q52 0 50 56v52v36v24v14v4q0 26 -15 45t-37 19q-18 0 -30 -21t-12 -47v-10h-22v10v8q0 68 66 68q76 0 76 -64v-126q0 -54 -52 -72q52 -16 52 -74v-80v-50v-30q0 -32 -22 -51t-54 -19 q-70 0 -70 70z" />
<glyph unicode="&#xb4;" horiz-adv-x="594" d="M196 1510l104 172h96l-130 -172h-70z" />
<glyph unicode="&#xb5;" horiz-adv-x="732" d="M74 0v676v10v29q0 19 1 46t1 65v82q0 44 1 102t1 118t1 118t1 102v82q0 38 1 65t1 46v29v10h78v-14q0 -14 -1 -44t-1 -68t-1 -98t-1 -124t-1 -124t-1 -98t-1 -68t-1 -44v-14q0 -84 59 -144t149 -60q94 0 151 56t57 142v14q0 16 1 46t1 69t1 99t1 124t1 124t1 99t1 69 t1 44v14h80v-40q-2 -40 -3 -129t-1 -195q0 -66 -1 -128t-1 -102t-1 -71t-1 -47v-14q0 -100 -81 -157t-207 -57h-8q-112 0 -200 66v-62v-154v-170v-156v-120v-44h-78z" />
<glyph unicode="&#xb6;" horiz-adv-x="612" d="M94 1382v56v14q0 66 1 101t5 91t14 86t27 64t46 48t67 14h152v-1856h-62v904h-124q-74 0 -100 98q-26 96 -26 380zM152 1466q2 -38 2 -84v-34v-90q0 -126 12 -184l20 -72q26 -72 82 -72h76v892h-102q-48 0 -68 -56q-20 -78 -22 -132q-2 -76 0 -168zM450 0h68v1856h-68 v-1856z" />
<glyph unicode="&#xb7;" horiz-adv-x="382" d="M130 799q12 37 44 46t60 -17q28 -28 16 -63t-43 -44t-61 15q-28 26 -16 63z" />
<glyph unicode="&#xb8;" horiz-adv-x="446" d="M118 -98h54q0 -68 58 -68q26 0 39 33t1 67t-48 34h-58l78 94h26l14 2l-50 -74q18 0 32 -3t23 -7t16 -11t11 -13t7 -14t3 -12v-10l2 -8v-14q0 -30 -26 -56q-32 -30 -70 -30q-56 0 -84 21t-28 53v16z" />
<glyph unicode="&#xb9;" horiz-adv-x="366" d="M140 1260l64 82h22v-558h-18v530l-48 -54h-20z" />
<glyph unicode="&#xba;" horiz-adv-x="460" d="M116 1528q0 48 32 82t80 34t82 -34t34 -82t-34 -80t-82 -32t-80 32t-32 80zM168 1531q0 -27 16 -45q18 -16 45 -16t43 16q28 28 16 61t-43 42t-61 -13q-16 -18 -16 -45z" />
<glyph unicode="&#xbb;" horiz-adv-x="584" d="M96 628v30v48l126 120l-126 110v42v32l166 -128v-120zM320 628v30v48l126 120l-126 110v42v32l166 -128v-120z" />
<glyph unicode="&#xbc;" horiz-adv-x="480" d="M112 1156l46 50h16v-336h-16v318l-34 -32h-12zM160 600l160 572l20 -2l-160 -570h-20zM246 524v6q14 0 24 34q4 8 16 46l20 76l22 70h12q-2 -10 -20 -74q-24 -72 -34 -118q-10 -34 -22 -34h76v180h16v-180h10v-6h-10v-100h-16v100h-94z" />
<glyph unicode="&#xbd;" horiz-adv-x="498" d="M110 1158l46 48h16v-334h-16v316l-34 -30h-12zM158 600l160 572l20 -2l-160 -570h-20zM270 422q6 0 26 48t48 120q26 72 26 126q0 34 -36 34q-16 0 -28 -11t-12 -27v-4h-16v8v2q0 38 56 38q48 0 48 -38q0 -76 -54 -214l-24 -48q-8 -16 -8 -22h92v-12h-2h-4h-4h-4h-2h-6 h-2h-2h-6h-2h-6h-2h-6h-2h-4h-6h-2h-8h-4h-4h-6h-4h-4h-26z" />
<glyph unicode="&#xbe;" horiz-adv-x="510" d="M108 910v44h12v-50q0 -30 36 -30q38 0 38 30v8v14v22v30v36q0 36 -38 36v6q38 0 38 30v32v20v16v8v2q0 16 -11 28t-27 12q-30 0 -30 -40v-8h-16v6l2 6q0 38 44 38q58 0 58 -36v-76q0 -34 -38 -42q34 -8 38 -46v-46v-30v-20q0 -42 -58 -42q-48 0 -48 42zM196 600l162 572 l18 -2l-160 -570h-20zM282 524v6q12 0 24 34l18 46l18 76l20 70h14l-20 -74l-32 -118q-12 -34 -24 -34h76v180h14v-180h12v-6h-12v-100h-14v100h-94z" />
<glyph unicode="&#xbf;" horiz-adv-x="740" d="M74 762q0 98 57 161t151 83q30 8 100 12h16l-2 634h70v-656h-46l-38 -2q-104 0 -169 -50t-65 -138v-208v-168v-120v-80v-26q0 -88 65 -137t169 -49q208 0 208 186v260h76v-240q0 -228 -284 -228q-136 0 -221 60t-85 170v104q0 16 -1 165t-1 267zM406 1760v104h54v-104 h-54z" />
<glyph unicode="&#xc0;" horiz-adv-x="604" d="M44 0l220 1858h68l228 -1858h-66l-52 438h-284l-50 -438h-64zM158 450h284l-144 1230zM230 2134h96l108 -172h-70z" />
<glyph unicode="&#xc1;" horiz-adv-x="594" d="M38 0h64l50 438h284l52 -438h66l-228 1858h-68zM152 450l140 1230l144 -1230h-284zM262 1962l104 172h96l-134 -172h-66z" />
<glyph unicode="&#xc2;" horiz-adv-x="594" d="M38 0l220 1858h68l228 -1858h-66l-52 438h-284l-50 -438h-64zM110 1962l128 166h120l130 -166h-26h-52l-118 128l-112 -128h-42h-28zM152 450h284l-144 1230z" />
<glyph unicode="&#xc3;" horiz-adv-x="594" d="M38 0h64l50 438h284l52 -438h66l-228 1858h-68zM128 1986q0 120 84 120q32 0 82 -18q54 -16 68 -16q20 -2 30 13t10 43h74q0 -130 -100 -130q-18 0 -64 23t-58 23h-4q-48 0 -48 -58h-74zM152 450l140 1230l144 -1230h-284z" />
<glyph unicode="&#xc4;" horiz-adv-x="594" d="M38 0l220 1858h68l228 -1858h-66l-52 438h-284l-50 -438h-64zM152 450h284l-144 1230zM162 2050q8 24 29 30t41 -10q20 -18 12 -41t-30 -30t-42 9q-18 18 -10 42zM339 2068q29 30 61 2q22 -18 12 -42t-32 -30t-40 10q-30 30 -1 60z" />
<glyph unicode="&#xc5;" horiz-adv-x="594" d="M38 0l220 1856q-24 10 -42 26q-52 54 -23 126t105 72t106 -72t-24 -126q-22 -26 -54 -28l228 -1854h-66l-52 438h-284l-50 -438h-64zM152 450h284l-144 1230zM246 1937q16 -31 52 -31q28 0 48 14q16 12 16 34q0 34 -18 54t-42 20h-4q-36 0 -52 -30t0 -61z" />
<glyph unicode="&#xc7;" horiz-adv-x="594" d="M38 924q0 640 74 824q40 98 87 131t137 33q104 8 151 -69t61 -221q6 -60 6 -142q0 -46 -2 -70h-68v48q0 214 -44 330t-114 116q-138 0 -176 -276q-24 -174 -24 -688q0 -74 -2 -132v-140q0 -186 6 -256q16 -174 26 -208q44 -138 124 -138q78 2 117 35t62 133t25 296h68 v-46q0 -224 -58 -336q-34 -72 -132 -90q-10 -2 -44 -2l-46 -66q34 0 56 -9t30 -26t9 -24t1 -19q8 -36 -25 -68t-75 -32q-54 0 -82 21t-28 53v16h56q0 -68 54 -68q28 0 41 33t1 67t-48 34h-56l74 88q-94 0 -142 56q-48 60 -74 242t-26 570z" />
<glyph unicode="&#xc8;" d="M102 0v1856h386v-8h-322v-870h322v-12h-322v-956h322v-10h-386zM216 2134h96l106 -172h-70z" />
<glyph unicode="&#xc9;" horiz-adv-x="500" d="M54 0h390v10h-322v956h322v12h-322v870h322v8h-390v-1856zM192 1962l104 172h96l-134 -172h-66z" />
<glyph unicode="&#xca;" horiz-adv-x="500" d="M46 0v1856h390v-8h-322v-870h322v-12h-322v-956h322v-10h-390zM72 1962l130 166h120l132 -166h-28h-52l-118 128l-112 -128h-42h-30z" />
<glyph unicode="&#xcb;" horiz-adv-x="500" d="M54 0v1856h390v-8h-322v-870h322v-12h-322v-956h322v-10h-390zM149 2050q9 24 30 30t41 -10q18 -18 11 -42t-29 -30t-44 10q-18 18 -9 42zM326 2008q-30 30 2 60t60 2q18 -18 11 -42t-28 -30t-45 10z" />
<glyph unicode="&#xcc;" horiz-adv-x="342" d="M70 2134h96l106 -172h-70zM152 2v1856h66v-1856h-66z" />
<glyph unicode="&#xcd;" horiz-adv-x="250" d="M24 0h68v1856h-68v-1856zM24 1962l104 172h96l-132 -172h-68z" />
<glyph unicode="&#xce;" horiz-adv-x="250" d="M-64 1962l126 166h120l134 -166h-30h-48l-118 128l-112 -128h-44h-28zM74 0v1856h66v-1856h-66z" />
<glyph unicode="&#xcf;" horiz-adv-x="250" d="M10 2008q-30 30 2 60t60 2q18 -18 11 -42t-28 -30t-45 10zM86 0v1856h68v-1856h-68zM168 2050q8 24 29 30t41 -10q20 -18 12 -41t-30 -30t-42 9q-18 18 -10 42z" />
<glyph unicode="&#xd0;" horiz-adv-x="514" d="M22 922v66h60v868h52h92h4h54q60 0 88 -24l32 -34q46 -72 68 -267t20 -595q-12 -400 -18 -490q-18 -324 -70 -398q-40 -48 -164 -48h-158v922h-60zM148 10h34h50q62 0 92 25t54 111q44 154 46 800q0 604 -52 760q-30 88 -63 115t-101 27h-60v-860h206v-66h-206v-912z" />
<glyph unicode="&#xd1;" horiz-adv-x="492" d="M54 0h68v1666l246 -1068v-598h68v1856h-68v-1080l-246 1082l-68 -2v-1856zM74 1986q0 120 84 120q30 0 84 -18q58 -16 66 -16q20 -2 31 13t11 43h72q4 -130 -98 -130q-26 0 -66 22q-38 24 -58 24h-4q-48 0 -48 -58h-74z" />
<glyph unicode="&#xd2;" horiz-adv-x="684" d="M86 884q0 482 54 714q24 104 60 164q36 58 71 78t85 20t82 -17t64 -73q64 -104 86 -440q10 -170 10 -350v-88v-102q0 -92 -4 -224q-16 -372 -86 -496q-34 -50 -70 -64t-98 -14q-36 0 -57 4t-48 20t-48 54t-43 98q-58 190 -58 716zM150 930q0 -430 38 -662 q18 -100 44 -160q42 -100 110 -100q78 0 114 60q34 62 56 260q20 192 20 610q-2 642 -72 808q-42 104 -104 104q-92 0 -150 -252q-56 -248 -56 -668zM278 2136h96l106 -172h-66z" />
<glyph unicode="&#xd3;" d="M36 884q0 482 54 714q28 106 62 164q58 98 156 98q48 0 81 -18t65 -72q66 -112 88 -440q8 -136 8 -350v-88q2 -34 2 -102q0 -126 -6 -224q-8 -162 -25 -273t-36 -170t-55 -89t-63 -36t-77 -6q-62 0 -106 24q-44 28 -88 152q-60 178 -60 716zM104 930q0 -442 36 -662 q14 -96 42 -160q28 -58 52 -79t58 -21q78 0 114 60q38 62 56 260q20 192 20 610q0 642 -72 808q-24 58 -47 81t-55 23q-92 0 -148 -252q-56 -248 -56 -668zM252 1964l104 172h96l-134 -172h-66z" />
<glyph unicode="&#xd4;" d="M36 884q0 482 54 714q28 106 62 164q58 98 156 98q48 0 81 -18t65 -72q66 -112 88 -440q8 -136 8 -350v-88q2 -34 2 -102q0 -126 -6 -224q-8 -162 -25 -273t-36 -170t-55 -89t-63 -36t-77 -6q-62 0 -106 24q-44 28 -88 152q-60 178 -60 716zM104 930q0 -442 36 -662 q14 -96 42 -160q28 -58 52 -79t58 -21q78 0 114 60q38 62 56 260q20 192 20 610q0 642 -72 808q-24 58 -47 81t-55 23q-92 0 -148 -252q-56 -248 -56 -668zM126 1964l128 168h120l130 -168h-26h-50l-116 128l-112 -128h-42h-32z" />
<glyph unicode="&#xd5;" d="M36 884q0 482 54 714q28 106 62 164q58 98 156 98q48 0 81 -18t65 -72q66 -112 88 -440q8 -136 8 -350v-88q2 -34 2 -102q0 -126 -6 -224q-8 -162 -25 -273t-36 -170t-55 -89t-63 -36t-77 -6q-62 0 -106 24q-44 28 -88 152q-60 178 -60 716zM104 930q0 -442 36 -662 q14 -96 42 -160q28 -58 52 -79t58 -21q78 0 114 60q38 62 56 260q20 192 20 610q0 642 -72 808q-24 58 -47 81t-55 23q-92 0 -148 -252q-56 -248 -56 -668zM134 1988q0 120 84 120q30 0 84 -18q58 -16 66 -16q40 -4 40 58h74q0 -130 -100 -130q-18 0 -64 22t-58 22h-4 q-48 0 -48 -58h-74z" />
<glyph unicode="&#xd6;" d="M36 884q0 482 54 714q28 106 62 164q58 98 156 98q48 0 81 -18t65 -72q66 -112 88 -440q8 -136 8 -350v-88q2 -34 2 -102q0 -126 -6 -224q-8 -162 -25 -273t-36 -170t-55 -89t-63 -36t-77 -6q-62 0 -106 24q-44 28 -88 152q-60 178 -60 716zM104 930q0 -442 36 -662 q14 -96 42 -160q28 -58 52 -79t58 -21q78 0 114 60q38 62 56 260q20 192 20 610q0 642 -72 808q-24 58 -47 81t-55 23q-92 0 -148 -252q-56 -248 -56 -668zM178 2052q8 24 31 30t43 -10q18 -16 11 -40t-28 -31t-43 9q-22 18 -14 42zM349 2052q7 24 28 30t43 -10t13 -41 t-32 -32t-41 11t-11 42z" />
<glyph unicode="&#xd7;" horiz-adv-x="632" d="M90 2l186 260l-186 260h10h64l152 -248l150 248h68h8l-188 -260l188 -260h-8h-68l-150 244l-152 -244h-64h-10z" />
<glyph unicode="&#xd8;" horiz-adv-x="780" d="M68 -16l54 198q-2 12 -2 38v710v712q0 96 86 158q88 64 210 64q94 0 166 -34l16 56h72l-26 -92q66 -58 66 -144v-714v-716q0 -112 -80 -172t-214 -60q-130 0 -216 58q-18 14 -36 34l-28 -96h-68zM200 200q0 -188 214 -188q216 0 216 188v712v714q0 40 -14 70l-416 -1486 v-10zM200 462l366 1312q-58 58 -142 58h-8q-94 0 -154 -66t-60 -148q0 -238 -2 -708v-448z" />
<glyph unicode="&#xd9;" horiz-adv-x="732" d="M78 216v820v822h78v-832v-832q0 -186 208 -186t208 186v832v832h80v-820v-822q0 -110 -78 -165t-210 -55q-286 0 -286 220zM288 2136h94l106 -172h-68z" />
<glyph unicode="&#xda;" horiz-adv-x="648" d="M36 216q0 -220 288 -220q132 0 209 55t77 165v822v820h-78v-832v-832q0 -186 -208 -186t-208 186v832v832h-80v-822v-820zM238 1964l104 172h96l-130 -172h-70z" />
<glyph unicode="&#xdb;" horiz-adv-x="648" d="M36 216v820v822h80v-832v-832q0 -186 208 -186t208 186v832v832h78v-820v-822q0 -110 -77 -165t-209 -55q-288 0 -288 220zM142 1964l128 166h120l130 -166h-26h-50l-118 128l-112 -128h-40h-32z" />
<glyph unicode="&#xdc;" horiz-adv-x="648" d="M36 216v820v822h80v-832v-832q0 -186 208 -186t208 186v832v832h78v-820v-822q0 -110 -77 -165t-209 -55q-288 0 -288 220zM201 2052q9 24 29 31t40 -11q18 -18 11 -42t-28 -30t-43 10q-18 18 -9 42zM366 2050q8 24 30 31t44 -9q18 -20 10 -44t-29 -29t-43 11 q-20 16 -12 40z" />
<glyph unicode="&#xdd;" horiz-adv-x="556" d="M248 1982l104 172h96l-130 -172h-70zM52 1856l10 2h68l148 -892l154 892h64h8l-190 -954v-904h-68v902z" />
<glyph unicode="&#xde;" horiz-adv-x="442" d="M64 0v1856h70v-250h80q54 0 88 -26t50 -79t21 -106t5 -131v-76v-54q0 -280 -28 -382q-26 -98 -96 -98h-122v-654h-68zM132 680h72q38 -6 65 38t35 106q4 26 8 94q4 80 4 92q2 22 2 92q-2 14 -2 32v80q2 92 0 170q0 80 -20 134q-14 54 -64 54h-100v-892z" />
<glyph unicode="&#xdf;" horiz-adv-x="648" d="M-66 -4v22q206 0 208 182q0 106 2 310l6 616l2 310v84v82q0 80 74 136t172 56q112 0 181 -49t69 -137v-190v-192q0 -164 -106 -204q62 -20 118 -86q56 -62 56 -134v-286v-290q0 -112 -77 -171t-209 -59q-34 0 -52 2v24q28 -4 52 -4q208 0 208 186v286v288q0 86 -57 142 t-151 56q-88 0 -148 -60t-60 -144v-46v-114v-144v-148v-116q0 -66 -34 -118q-64 -90 -254 -90zM222 942q0 18 60 60q62 44 116 44q180 0 180 158v192v194q0 74 -49 121t-131 47q-76 0 -126 -52t-50 -124v-318v-322z" />
<glyph unicode="&#xe0;" horiz-adv-x="604" d="M44 0l220 1858h68l228 -1858h-66l-52 438h-284l-50 -438h-64zM158 450h284l-144 1230zM230 2134h96l108 -172h-70z" />
<glyph unicode="&#xe1;" horiz-adv-x="594" d="M38 0h64l50 438h284l52 -438h66l-228 1858h-68zM152 450l140 1230l144 -1230h-284zM262 1962l104 172h96l-134 -172h-66z" />
<glyph unicode="&#xe2;" horiz-adv-x="594" d="M38 0l220 1858h68l228 -1858h-66l-52 438h-284l-50 -438h-64zM110 1962l128 166h120l130 -166h-26h-52l-118 128l-112 -128h-42h-28zM152 450h284l-144 1230z" />
<glyph unicode="&#xe3;" horiz-adv-x="594" d="M38 0h64l50 438h284l52 -438h66l-228 1858h-68zM128 1986q0 120 84 120q32 0 82 -18q54 -16 68 -16q20 -2 30 13t10 43h74q0 -130 -100 -130q-18 0 -64 23t-58 23h-4q-48 0 -48 -58h-74zM152 450l140 1230l144 -1230h-284z" />
<glyph unicode="&#xe4;" horiz-adv-x="594" d="M38 0l220 1858h68l228 -1858h-66l-52 438h-284l-50 -438h-64zM152 450h284l-144 1230zM162 2050q8 24 29 30t41 -10q20 -18 12 -41t-30 -30t-42 9q-18 18 -10 42zM339 2068q29 30 61 2q22 -18 12 -42t-32 -30t-40 10q-30 30 -1 60z" />
<glyph unicode="&#xe5;" horiz-adv-x="594" d="M38 0l220 1856q-24 10 -42 26q-52 54 -23 126t105 72t106 -72t-24 -126q-22 -26 -54 -28l228 -1854h-66l-52 438h-284l-50 -438h-64zM152 450h284l-144 1230zM246 1937q16 -31 52 -31q28 0 48 14q16 12 16 34q0 34 -18 54t-42 20h-4q-36 0 -52 -30t0 -61z" />
<glyph unicode="&#xe6;" horiz-adv-x="926" d="M32 0l228 1858l632 -2v-8h-562l112 -892h450v-20h-450l114 -926h336v-10h-402l-56 452h-280l-50 -452h-68h-4zM156 464h278l-140 1184z" />
<glyph unicode="&#xe7;" horiz-adv-x="594" d="M38 924q0 640 74 824q40 98 87 131t137 33q104 8 151 -69t61 -221q6 -60 6 -142q0 -46 -2 -70h-68v48q0 214 -44 330t-114 116q-138 0 -176 -276q-24 -174 -24 -688q0 -74 -2 -132v-140q0 -186 6 -256q16 -174 26 -208q44 -138 124 -138q78 2 117 35t62 133t25 296h68 v-46q0 -224 -58 -336q-34 -72 -132 -90q-10 -2 -44 -2l-46 -66q34 0 56 -9t30 -26t9 -24t1 -19q8 -36 -25 -68t-75 -32q-54 0 -82 21t-28 53v16h56q0 -68 54 -68q28 0 41 33t1 67t-48 34h-56l74 88q-94 0 -142 56q-48 60 -74 242t-26 570z" />
<glyph unicode="&#xe8;" d="M102 0v1856h386v-8h-322v-870h322v-12h-322v-956h322v-10h-386zM216 2134h96l106 -172h-70z" />
<glyph unicode="&#xe9;" horiz-adv-x="500" d="M54 0h390v10h-322v956h322v12h-322v870h322v8h-390v-1856zM192 1962l104 172h96l-134 -172h-66z" />
<glyph unicode="&#xea;" horiz-adv-x="500" d="M46 0v1856h390v-8h-322v-870h322v-12h-322v-956h322v-10h-390zM72 1962l130 166h120l132 -166h-28h-52l-118 128l-112 -128h-42h-30z" />
<glyph unicode="&#xeb;" horiz-adv-x="500" d="M54 0v1856h390v-8h-322v-870h322v-12h-322v-956h322v-10h-390zM149 2050q9 24 30 30t41 -10q18 -18 11 -42t-29 -30t-44 10q-18 18 -9 42zM326 2008q-30 30 2 60t60 2q18 -18 11 -42t-28 -30t-45 10z" />
<glyph unicode="&#xec;" horiz-adv-x="342" d="M70 2134h96l106 -172h-70zM152 2v1856h66v-1856h-66z" />
<glyph unicode="&#xed;" horiz-adv-x="250" d="M24 0h68v1856h-68v-1856zM24 1962l104 172h96l-132 -172h-68z" />
<glyph unicode="&#xee;" horiz-adv-x="250" d="M-64 1962l126 166h120l134 -166h-30h-48l-118 128l-112 -128h-44h-28zM74 0v1856h66v-1856h-66z" />
<glyph unicode="&#xef;" horiz-adv-x="250" d="M10 2008q-30 30 2 60t60 2q18 -18 11 -42t-28 -30t-45 10zM86 0v1856h68v-1856h-68zM168 2050q8 24 29 30t41 -10q20 -18 12 -41t-30 -30t-42 9q-18 18 -10 42z" />
<glyph unicode="&#xf0;" horiz-adv-x="586" d="M56 922v66h62v868h50h96h2h54q60 0 86 -26q6 -2 34 -32q6 -8 11 -16t10 -20t8 -21t7 -26t6 -27t6 -32t6 -34t7 -40t7 -42l12 -154q8 -120 8 -450q-16 -436 -20 -490q-14 -322 -68 -398q-42 -48 -166 -48h-156v922h-62zM186 10h34h48q62 0 91 25t53 111q26 84 35 256 t15 544q0 598 -54 760q-30 88 -63 115t-99 27h-60v-860h202v-66h-202v-912z" />
<glyph unicode="&#xf1;" horiz-adv-x="492" d="M54 0h68v1666l246 -1068v-598h68v1856h-68v-1080l-246 1082l-68 -2v-1856zM74 1986q0 120 84 120q30 0 84 -18q58 -16 66 -16q20 -2 31 13t11 43h72q4 -130 -98 -130q-26 0 -66 22q-38 24 -58 24h-4q-48 0 -48 -58h-74z" />
<glyph unicode="&#xf2;" horiz-adv-x="684" d="M86 884q0 482 54 714q24 104 60 164q36 58 71 78t85 20t82 -17t64 -73q64 -104 86 -440q10 -170 10 -350v-88v-102q0 -92 -4 -224q-16 -372 -86 -496q-34 -50 -70 -64t-98 -14q-36 0 -57 4t-48 20t-48 54t-43 98q-58 190 -58 716zM150 930q0 -430 38 -662 q18 -100 44 -160q42 -100 110 -100q78 0 114 60q34 62 56 260q20 192 20 610q-2 642 -72 808q-42 104 -104 104q-92 0 -150 -252q-56 -248 -56 -668zM278 2136h96l106 -172h-66z" />
<glyph unicode="&#xf3;" d="M36 884q0 482 54 714q28 106 62 164q58 98 156 98q48 0 81 -18t65 -72q66 -112 88 -440q8 -136 8 -350v-88q2 -34 2 -102q0 -126 -6 -224q-8 -162 -25 -273t-36 -170t-55 -89t-63 -36t-77 -6q-62 0 -106 24q-44 28 -88 152q-60 178 -60 716zM104 930q0 -442 36 -662 q14 -96 42 -160q28 -58 52 -79t58 -21q78 0 114 60q38 62 56 260q20 192 20 610q0 642 -72 808q-24 58 -47 81t-55 23q-92 0 -148 -252q-56 -248 -56 -668zM252 1964l104 172h96l-134 -172h-66z" />
<glyph unicode="&#xf4;" d="M36 884q0 482 54 714q28 106 62 164q58 98 156 98q48 0 81 -18t65 -72q66 -112 88 -440q8 -136 8 -350v-88q2 -34 2 -102q0 -126 -6 -224q-8 -162 -25 -273t-36 -170t-55 -89t-63 -36t-77 -6q-62 0 -106 24q-44 28 -88 152q-60 178 -60 716zM104 930q0 -442 36 -662 q14 -96 42 -160q28 -58 52 -79t58 -21q78 0 114 60q38 62 56 260q20 192 20 610q0 642 -72 808q-24 58 -47 81t-55 23q-92 0 -148 -252q-56 -248 -56 -668zM126 1964l128 168h120l130 -168h-26h-50l-116 128l-112 -128h-42h-32z" />
<glyph unicode="&#xf5;" d="M36 884q0 482 54 714q28 106 62 164q58 98 156 98q48 0 81 -18t65 -72q66 -112 88 -440q8 -136 8 -350v-88q2 -34 2 -102q0 -126 -6 -224q-8 -162 -25 -273t-36 -170t-55 -89t-63 -36t-77 -6q-62 0 -106 24q-44 28 -88 152q-60 178 -60 716zM104 930q0 -442 36 -662 q14 -96 42 -160q28 -58 52 -79t58 -21q78 0 114 60q38 62 56 260q20 192 20 610q0 642 -72 808q-24 58 -47 81t-55 23q-92 0 -148 -252q-56 -248 -56 -668zM134 1988q0 120 84 120q30 0 84 -18q58 -16 66 -16q40 -4 40 58h74q0 -130 -100 -130q-18 0 -64 22t-58 22h-4 q-48 0 -48 -58h-74z" />
<glyph unicode="&#xf6;" d="M36 884q0 482 54 714q28 106 62 164q58 98 156 98q48 0 81 -18t65 -72q66 -112 88 -440q8 -136 8 -350v-88q2 -34 2 -102q0 -126 -6 -224q-8 -162 -25 -273t-36 -170t-55 -89t-63 -36t-77 -6q-62 0 -106 24q-44 28 -88 152q-60 178 -60 716zM104 930q0 -442 36 -662 q14 -96 42 -160q28 -58 52 -79t58 -21q78 0 114 60q38 62 56 260q20 192 20 610q0 642 -72 808q-24 58 -47 81t-55 23q-92 0 -148 -252q-56 -248 -56 -668zM178 2052q8 24 31 30t43 -10q18 -16 11 -40t-28 -31t-43 9q-22 18 -14 42zM349 2052q7 24 28 30t43 -10t13 -41 t-32 -32t-41 11t-11 42z" />
<glyph unicode="&#xf7;" horiz-adv-x="818" d="M62 596v54h694v-54h-694zM387 353q7 23 28 29t43 -10q18 -16 11 -39t-28 -29t-43 10q-18 16 -11 39zM388 872q8 24 29 30t41 -10q18 -16 11 -40t-28 -31t-43 9q-18 18 -10 42z" />
<glyph unicode="&#xf9;" horiz-adv-x="732" d="M78 216v820v822h78v-832v-832q0 -186 208 -186t208 186v832v832h80v-820v-822q0 -110 -78 -165t-210 -55q-286 0 -286 220zM288 2136h94l106 -172h-68z" />
<glyph unicode="&#xfa;" horiz-adv-x="648" d="M36 216q0 -220 288 -220q132 0 209 55t77 165v822v820h-78v-832v-832q0 -186 -208 -186t-208 186v832v832h-80v-822v-820zM238 1964l104 172h96l-130 -172h-70z" />
<glyph unicode="&#xfb;" horiz-adv-x="648" d="M36 216v820v822h80v-832v-832q0 -186 208 -186t208 186v832v832h78v-820v-822q0 -110 -77 -165t-209 -55q-288 0 -288 220zM142 1964l128 166h120l130 -166h-26h-50l-118 128l-112 -128h-40h-32z" />
<glyph unicode="&#xfc;" horiz-adv-x="648" d="M36 216v820v822h80v-832v-832q0 -186 208 -186t208 186v832v832h78v-820v-822q0 -110 -77 -165t-209 -55q-288 0 -288 220zM201 2052q9 24 29 31t40 -11q18 -18 11 -42t-28 -30t-43 10q-18 18 -9 42zM366 2050q8 24 30 31t44 -9q18 -20 10 -44t-29 -29t-43 11 q-20 16 -12 40z" />
<glyph unicode="&#xfd;" horiz-adv-x="556" d="M248 1982l104 172h96l-130 -172h-70zM52 1856l10 2h68l148 -892l154 892h64h8l-190 -954v-904h-68v902z" />
<glyph unicode="&#xfe;" horiz-adv-x="442" d="M64 0v1856h70v-250h80q54 0 88 -26t50 -79t21 -106t5 -131v-76v-54q0 -280 -28 -382q-26 -98 -96 -98h-122v-654h-68zM132 680h72q38 -6 65 38t35 106q4 26 8 94q4 80 4 92q2 22 2 92q-2 14 -2 32v80q2 92 0 170q0 80 -20 134q-14 54 -64 54h-100v-892z" />
<glyph unicode="&#xff;" horiz-adv-x="548" d="M48 1856l10 2h68l148 -818l154 818h64h8l-192 -954v-904h-66v902zM159 2051q9 25 31 31t40 -12t11 -42t-29 -30t-44 10q-18 18 -9 43zM328 2050q8 24 29 30t39 -10q18 -18 11 -42t-27 -30t-42 10q-18 18 -10 42z" />
<glyph unicode="&#x152;" horiz-adv-x="954" d="M60 884q0 482 54 714q46 198 134 242q160 60 228 -70q18 -28 30 -62v150h388v-8h-322v-782q2 -30 2 -88h320v-10h-320q-2 -26 -2 -78q4 -110 0 -196v-684h322v-10h-388v124q-10 -34 -22 -56q-38 -52 -73 -65t-97 -13q-36 0 -57 4t-48 20t-48 54t-43 98q-58 190 -58 716z M124 930q0 -430 38 -662q18 -100 44 -160q42 -100 110 -100q78 0 114 60q34 62 56 260q20 192 20 610q-2 642 -72 808q-42 104 -104 104q-94 0 -150 -252q-56 -248 -56 -668z" />
<glyph unicode="&#x153;" horiz-adv-x="954" d="M60 884q0 482 54 714q46 198 134 242q160 60 228 -70q18 -28 30 -62v150h388v-8h-322v-782q2 -30 2 -88h320v-10h-320q-2 -26 -2 -78q4 -110 0 -196v-684h322v-10h-388v124q-10 -34 -22 -56q-38 -52 -73 -65t-97 -13q-36 0 -57 4t-48 20t-48 54t-43 98q-58 190 -58 716z M124 930q0 -430 38 -662q18 -100 44 -160q42 -100 110 -100q78 0 114 60q34 62 56 260q20 192 20 610q-2 642 -72 808q-42 104 -104 104q-94 0 -150 -252q-56 -248 -56 -668z" />
<glyph unicode="&#x178;" horiz-adv-x="556" d="M52 1856l10 2h68l148 -892l154 892h64h8l-190 -954v-904h-68v902zM160 2070q8 24 29 30t41 -10q18 -18 10 -41t-29 -29t-41 8q-18 18 -10 42zM326 2072q8 24 29 29t43 -11q18 -18 10 -41t-29 -29t-43 8q-18 20 -10 44z" />
<glyph unicode="&#x2c6;" horiz-adv-x="576" d="M98 1510l126 166h120l134 -166h-30h-52l-116 126l-112 -126h-42h-28z" />
<glyph unicode="&#x2dc;" horiz-adv-x="232" d="M-58 122q0 120 80 120q34 0 86 -18q58 -16 68 -16q20 -2 29 12t9 44h76q0 -130 -102 -130q-24 0 -64 22q-38 22 -58 22h-4q-50 0 -50 -56h-70z" />
<glyph unicode="&#x2000;" horiz-adv-x="1076" />
<glyph unicode="&#x2001;" horiz-adv-x="2154" />
<glyph unicode="&#x2002;" horiz-adv-x="1076" />
<glyph unicode="&#x2003;" horiz-adv-x="2154" />
<glyph unicode="&#x2004;" horiz-adv-x="718" />
<glyph unicode="&#x2005;" horiz-adv-x="538" />
<glyph unicode="&#x2006;" horiz-adv-x="358" />
<glyph unicode="&#x2007;" horiz-adv-x="358" />
<glyph unicode="&#x2008;" horiz-adv-x="268" />
<glyph unicode="&#x2009;" horiz-adv-x="430" />
<glyph unicode="&#x200a;" horiz-adv-x="118" />
<glyph unicode="&#x2010;" horiz-adv-x="616" d="M94 608v64h428v-64h-428z" />
<glyph unicode="&#x2011;" horiz-adv-x="616" d="M94 608v64h428v-64h-428z" />
<glyph unicode="&#x2012;" horiz-adv-x="616" d="M94 608v64h428v-64h-428z" />
<glyph unicode="&#x2013;" horiz-adv-x="1024" d="M94 608v64h836v-64h-836z" />
<glyph unicode="&#x2014;" horiz-adv-x="2048" d="M94 608v64h1860v-64h-1860z" />
<glyph unicode="&#x2018;" horiz-adv-x="440" d="M120 1682h94l106 -172h-68z" />
<glyph unicode="&#x2019;" horiz-adv-x="376" d="M128 1510l46 160h74l-64 -160h-56z" />
<glyph unicode="&#x201c;" horiz-adv-x="484" d="M112 1510l46 160h74l-64 -160h-56zM252 1510l46 160h74l-62 -160h-58z" />
<glyph unicode="&#x201d;" horiz-adv-x="484" d="M112 1510l46 160h74l-64 -160h-56zM252 1510l46 160h74l-62 -160h-58z" />
<glyph unicode="&#x2026;" horiz-adv-x="978" d="M788 0v104h54v-104h-54zM462 0v104h54v-104h-54zM136 0v104h54v-104h-54z" />
<glyph unicode="&#x202f;" horiz-adv-x="430" />
<glyph unicode="&#x2039;" horiz-adv-x="462" d="M116 374v48l230 170v-28v-52l-126 -118l126 -112v-42v-30z" />
<glyph unicode="&#x203a;" horiz-adv-x="462" d="M116 210v30v42l126 112l-126 118v52v28l230 -170v-48z" />
<glyph unicode="&#x205f;" horiz-adv-x="538" />
<glyph unicode="&#x2122;" horiz-adv-x="1234" d="M678 0v1858h64l160 -1724l170 1722h68v-1856h-68v1634l-156 -1624h-2h-24h-2l-146 1624v-1634h-64zM46 1848v8h494v-8h-214v-1848h-68v1848h-212z" />
<glyph unicode="&#xe000;" horiz-adv-x="1855" d="M0 1855h1855v-1855h-1855v1855z" />
<glyph unicode="&#xfb01;" horiz-adv-x="932" d="M728 0v1856h64v-1856h-64zM102 1856h386v-8h-322v-874h322v-8h-322v-966h-62z" />
<glyph unicode="&#xfb02;" horiz-adv-x="1104" d="M702 0v1856h64v-1846h224v-10h-288zM102 1856h386v-8h-322v-874h322v-8h-322v-966h-62z" />
<glyph unicode="&#xfb03;" horiz-adv-x="1522" d="M1318 0v1856h64v-1856h-64zM692 1856h386v-8h-322v-874h322v-8h-322v-966h-62zM102 1856h386v-8h-322v-874h322v-8h-322v-966h-62z" />
<glyph unicode="&#xfb04;" horiz-adv-x="1694" d="M1292 0v1856h64v-1846h224v-10h-288zM692 1856h386v-8h-322v-874h322v-8h-322v-966h-62zM102 1856h386v-8h-322v-874h322v-8h-322v-966h-62z" />
<glyph horiz-adv-x="740" />
</font>
</defs>
</svg>
